<?xml version="1.0" encoding="UTF-8"?>
<!DOCTYPE svg PUBLIC "-//W3C//DTD SVG 1.1//EN" "http://www.w3.org/Graphics/SVG/1.1/DTD/svg11.dtd">
<svg xmlns="http://www.w3.org/2000/svg" version="1.1" width="512px" height="512px" style="shape-rendering:geometricPrecision; text-rendering:geometricPrecision; image-rendering:optimizeQuality; fill-rule:evenodd; clip-rule:evenodd" xmlns:xlink="http://www.w3.org/1999/xlink">
<g><path style="opacity:0.956" fill="#000000" d="M 243.5,-0.5 C 251.5,-0.5 259.5,-0.5 267.5,-0.5C 314.923,8.08854 343.423,36.0885 353,83.5C 354.37,110.145 354.87,136.812 354.5,163.5C 364.172,163.334 373.839,163.5 383.5,164C 398.43,170.001 405.097,181.167 403.5,197.5C 437.835,197.333 472.168,197.5 506.5,198C 508.323,198.997 509.99,200.164 511.5,201.5C 511.5,204.167 511.5,206.833 511.5,209.5C 510.684,211.144 509.35,212.31 507.5,213C 470.168,213.5 432.835,213.667 395.5,213.5C 392.901,213.451 390.734,212.451 389,210.5C 387.765,202.577 387.098,194.577 387,186.5C 385.73,182.23 382.896,179.73 378.5,179C 369.506,178.5 360.506,178.334 351.5,178.5C 278.166,178.333 204.833,178.5 131.5,179C 128,180.5 125.5,183 124,186.5C 123.333,250.5 123.333,314.5 124,378.5C 125.442,382.275 127.942,385.108 131.5,387C 214.001,387.832 296.334,387.666 378.5,386.5C 383.072,385.763 385.905,383.097 387,378.5C 387.333,331.833 387.667,285.167 388,238.5C 389.41,235.211 391.91,233.544 395.5,233.5C 400.061,233.56 402.561,235.893 403,240.5C 403.5,254.163 403.667,267.829 403.5,281.5C 407.846,281.666 412.179,281.499 416.5,281C 420.579,272.84 424.912,264.84 429.5,257C 438.065,255.725 446.732,255.058 455.5,255C 464.143,236.228 478.143,230.561 497.5,238C 504.279,242.265 508.946,248.098 511.5,255.5C 511.5,260.5 511.5,265.5 511.5,270.5C 505.474,286.526 493.808,293.359 476.5,291C 466.009,288.342 459.343,281.842 456.5,271.5C 450.824,271.334 445.157,271.501 439.5,272C 435.872,278.755 432.372,285.588 429,292.5C 428.052,294.57 426.552,296.07 424.5,297C 417.508,297.5 410.508,297.666 403.5,297.5C 403.5,311.5 403.5,325.5 403.5,339.5C 420.837,339.667 438.17,339.5 455.5,339C 464.833,319.441 479.5,314.108 499.5,323C 505.328,327.305 509.328,332.805 511.5,339.5C 511.5,344.5 511.5,349.5 511.5,354.5C 504.625,371.773 491.958,378.273 473.5,374C 464.479,370.816 458.812,364.649 456.5,355.5C 438.833,355.5 421.167,355.5 403.5,355.5C 403.946,366.705 403.112,377.705 401,388.5C 423.138,411.639 445.638,434.472 468.5,457C 488.572,450.29 502.905,456.457 511.5,475.5C 511.5,480.5 511.5,485.5 511.5,490.5C 508.193,501.141 501.193,508.141 490.5,511.5C 485.833,511.5 481.167,511.5 476.5,511.5C 457.04,503.237 450.54,488.903 457,468.5C 433.972,445.805 411.305,422.805 389,399.5C 386.929,400.525 384.762,401.358 382.5,402C 373.506,402.5 364.506,402.666 355.5,402.5C 355.333,420.17 355.5,437.836 356,455.5C 372.743,462.99 378.743,475.656 374,493.5C 369.863,502.64 363.03,508.64 353.5,511.5C 349.167,511.5 344.833,511.5 340.5,511.5C 320.103,502.832 314.269,488.165 323,467.5C 327.176,461.996 332.509,457.996 339,455.5C 339.5,437.836 339.667,420.17 339.5,402.5C 325.5,402.5 311.5,402.5 297.5,402.5C 297.935,410.611 297.435,418.611 296,426.5C 288.16,431.088 280.16,435.421 272,439.5C 271.333,444.833 271.333,450.167 272,455.5C 289.102,463.371 295.102,476.371 290,494.5C 285.971,503.084 279.471,508.751 270.5,511.5C 265.833,511.5 261.167,511.5 256.5,511.5C 235.486,502.299 229.986,487.299 240,466.5C 243.899,461.259 248.899,457.592 255,455.5C 255.058,446.732 255.725,438.065 257,429.5C 264.753,425.04 272.586,420.706 280.5,416.5C 281.493,411.88 281.827,407.214 281.5,402.5C 264.5,402.5 247.5,402.5 230.5,402.5C 230.667,414.838 230.5,427.171 230,439.5C 227.045,443.277 223.212,444.443 218.5,443C 216.951,441.786 215.785,440.286 215,438.5C 214.5,426.505 214.333,414.505 214.5,402.5C 200.167,402.5 185.833,402.5 171.5,402.5C 171.333,420.17 171.5,437.836 172,455.5C 188.641,462.446 194.974,474.78 191,492.5C 187.159,502.178 180.326,508.512 170.5,511.5C 166.167,511.5 161.833,511.5 157.5,511.5C 140.706,505.935 133.539,494.268 136,476.5C 138.811,466.354 145.145,459.354 155,455.5C 155.5,437.836 155.667,420.17 155.5,402.5C 146.494,402.666 137.494,402.5 128.5,402C 126.481,401.55 124.648,400.717 123,399.5C 100,422.5 77,445.5 54,468.5C 59.4452,482.885 56.6119,495.385 45.5,506C 41.9833,508.326 38.3166,510.16 34.5,511.5C 30.1667,511.5 25.8333,511.5 21.5,511.5C 10.5,507.833 3.16667,500.5 -0.5,489.5C -0.5,485.167 -0.5,480.833 -0.5,476.5C 3.77431,462.907 13.1076,455.574 27.5,454.5C 32.5993,455.198 37.5993,456.031 42.5,457C 65.9055,434.263 88.5721,410.93 110.5,387C 110,385.5 109.5,384 109,382.5C 108.5,373.506 108.334,364.506 108.5,355.5C 90.8302,355.333 73.1635,355.5 55.5,356C 45.7675,375.134 31.1009,380.134 11.5,371C 5.34822,366.495 1.34822,360.662 -0.5,353.5C -0.5,349.167 -0.5,344.833 -0.5,340.5C 5.93015,322.447 18.5968,315.614 37.5,320C 46.3659,323.366 52.3659,329.533 55.5,338.5C 73.1541,339.5 90.8208,339.833 108.5,339.5C 108.5,325.5 108.5,311.5 108.5,297.5C 87.4974,297.667 66.4974,297.5 45.5,297C 44.0692,296.535 42.9025,295.701 42,294.5C 38.4217,287.009 34.5883,279.676 30.5,272.5C 21.8525,271.668 13.1858,271.168 4.5,271C 2.67694,270.003 1.01027,268.836 -0.5,267.5C -0.5,264.833 -0.5,262.167 -0.5,259.5C 0.316435,257.856 1.64977,256.69 3.5,256C 15.1667,255.333 26.8333,255.333 38.5,256C 40.5524,256.93 42.0524,258.43 43,260.5C 46.3723,267.412 49.8723,274.245 53.5,281C 71.8303,281.5 90.1636,281.667 108.5,281.5C 108.5,258.833 108.5,236.167 108.5,213.5C 90.8302,213.333 73.1635,213.5 55.5,214C 48.5839,230.626 36.2506,236.959 18.5,233C 8.79481,229.134 2.46148,222.301 -0.5,212.5C -0.5,208.167 -0.5,203.833 -0.5,199.5C 8.75435,177.469 24.0877,171.969 45.5,183C 50.0718,186.821 53.4051,191.488 55.5,197C 73.1635,197.5 90.8302,197.667 108.5,197.5C 106.272,181.278 112.605,170.111 127.5,164C 139.829,163.5 152.162,163.333 164.5,163.5C 172.167,163.5 179.833,163.5 187.5,163.5C 187.333,138.498 187.5,113.498 188,88.5C 192.453,62.3737 206.953,44.207 231.5,34C 255.046,26.555 277.046,29.7217 297.5,43.5C 309.713,53.9182 317.879,66.9182 322,82.5C 323.446,109.463 323.946,136.463 323.5,163.5C 328.5,163.5 333.5,163.5 338.5,163.5C 338.667,137.498 338.5,111.498 338,85.5C 329.543,45.207 305.043,21.8737 264.5,15.5C 219.468,13.3436 189.634,33.677 175,76.5C 174.206,79.4715 173.539,82.4715 173,85.5C 172.667,102.833 172.333,120.167 172,137.5C 171.15,141.513 168.65,143.513 164.5,143.5C 159.944,143.446 157.444,141.112 157,136.5C 156.333,123.167 156.333,109.833 157,96.5C 161.439,42.2355 190.273,9.90215 243.5,-0.5 Z M 247.5,45.5 C 276.527,43.7502 296.027,56.4169 306,83.5C 307.061,88.1042 307.727,92.7709 308,97.5C 308.5,119.497 308.667,141.497 308.5,163.5C 273.167,163.5 237.833,163.5 202.5,163.5C 202.333,141.497 202.5,119.497 203,97.5C 205.483,69.5222 220.316,52.1889 247.5,45.5 Z"/></g>
<g><path style="opacity:0.997" fill="#d4e8fa" d="M 264.5,15.5 C 277.622,22.2428 288.622,31.5761 297.5,43.5C 277.046,29.7217 255.046,26.555 231.5,34C 206.953,44.207 192.453,62.3737 188,88.5C 187.5,113.498 187.333,138.498 187.5,163.5C 179.833,163.5 172.167,163.5 164.5,163.5C 164.5,156.833 164.5,150.167 164.5,143.5C 168.65,143.513 171.15,141.513 172,137.5C 172.333,120.167 172.667,102.833 173,85.5C 173.539,82.4715 174.206,79.4715 175,76.5C 189.634,33.677 219.468,13.3436 264.5,15.5 Z"/></g>
<g><path style="opacity:1" fill="#c1dffc" d="M 264.5,15.5 C 305.043,21.8737 329.543,45.207 338,85.5C 338.5,111.498 338.667,137.498 338.5,163.5C 333.5,163.5 328.5,163.5 323.5,163.5C 323.946,136.463 323.446,109.463 322,82.5C 317.879,66.9182 309.713,53.9182 297.5,43.5C 288.622,31.5761 277.622,22.2428 264.5,15.5 Z"/></g>
<g><path style="opacity:1" fill="#fddf76" d="M 351.5,178.5 C 352.32,180.14 353.153,181.807 354,183.5C 354.667,249.167 354.667,314.833 354,380.5C 353.55,382.519 352.717,384.352 351.5,386C 360.494,386.5 369.494,386.666 378.5,386.5C 296.334,387.666 214.001,387.832 131.5,387C 127.942,385.108 125.442,382.275 124,378.5C 123.333,314.5 123.333,250.5 124,186.5C 125.5,183 128,180.5 131.5,179C 204.833,178.5 278.166,178.333 351.5,178.5 Z"/></g>
<g><path style="opacity:1" fill="#fed15b" d="M 351.5,178.5 C 360.506,178.334 369.506,178.5 378.5,179C 382.896,179.73 385.73,182.23 387,186.5C 387.098,194.577 387.765,202.577 389,210.5C 390.734,212.451 392.901,213.451 395.5,213.5C 395.5,220.167 395.5,226.833 395.5,233.5C 391.91,233.544 389.41,235.211 388,238.5C 387.667,285.167 387.333,331.833 387,378.5C 385.905,383.097 383.072,385.763 378.5,386.5C 369.494,386.666 360.494,386.5 351.5,386C 352.717,384.352 353.55,382.519 354,380.5C 354.667,314.833 354.667,249.167 354,183.5C 353.153,181.807 352.32,180.14 351.5,178.5 Z"/></g>
<g><path style="opacity:1" fill="#5db2f8" d="M 24.5,192.5 C 40.1853,193.869 44.3519,201.536 37,215.5C 29.7309,220.04 23.0642,219.373 17,213.5C 12.7049,204.088 15.2049,197.088 24.5,192.5 Z"/></g>
<g><path style="opacity:1" fill="#020202" d="M 251.5,206.5 C 256.531,206.18 261.197,207.347 265.5,210C 285.746,220.192 306.08,230.192 326.5,240C 327.701,240.903 328.535,242.069 329,243.5C 329.974,271.229 329.641,298.895 328,326.5C 304.014,338.937 279.681,350.604 255,361.5C 231.008,350.388 207.175,338.888 183.5,327C 182.874,326.25 182.374,325.416 182,324.5C 181.018,296.747 181.351,269.08 183,241.5C 205.972,229.931 228.806,218.265 251.5,206.5 Z"/></g>
<g><path style="opacity:1" fill="#4d63ca" d="M 291.5,252.5 C 292.125,249.03 291.125,246.196 288.5,244C 275.443,237.803 262.443,231.637 249.5,225.5C 251.688,223.245 254.354,222.411 257.5,223C 273.32,230.41 288.987,238.077 304.5,246C 300.14,248.18 295.807,250.347 291.5,252.5 Z"/></g>
<g><path style="opacity:1" fill="#6a7dd5" d="M 249.5,225.5 C 262.443,231.637 275.443,237.803 288.5,244C 291.125,246.196 292.125,249.03 291.5,252.5C 279.552,258.139 267.552,263.806 255.5,269.5C 238.928,262.215 222.595,254.381 206.5,246C 220.581,238.626 234.915,231.792 249.5,225.5 Z"/></g>
<g><path style="opacity:1" fill="#25a2f8" d="M 478.5,250.5 C 492.476,249.636 497.976,255.969 495,269.5C 489.303,277.171 482.47,278.338 474.5,273C 468.138,264.036 469.471,256.536 478.5,250.5 Z"/></g>
<g><path style="opacity:1" fill="#e1c6ef" d="M 196.5,258.5 C 213.599,266.215 230.599,274.215 247.5,282.5C 248.5,302.155 248.833,321.822 248.5,341.5C 231.412,333.79 214.412,325.79 197.5,317.5C 196.5,297.845 196.167,278.178 196.5,258.5 Z"/></g>
<g><path style="opacity:1" fill="#bb7fdf" d="M 263.5,341.5 C 263.244,339.208 263.577,337.041 264.5,335C 272.712,330.727 281.045,326.727 289.5,323C 290.701,322.097 291.535,320.931 292,319.5C 292.5,302.503 292.667,285.503 292.5,268.5C 299.352,264.908 306.352,261.574 313.5,258.5C 314.833,278.167 314.833,297.833 313.5,317.5C 296.812,325.511 280.145,333.511 263.5,341.5 Z"/></g>
<g><path style="opacity:1" fill="#c693e1" d="M 292.5,268.5 C 292.667,285.503 292.5,302.503 292,319.5C 291.535,320.931 290.701,322.097 289.5,323C 281.045,326.727 272.712,330.727 264.5,335C 263.577,337.041 263.244,339.208 263.5,341.5C 262.172,321.996 262.172,302.329 263.5,282.5C 273.315,278.092 282.982,273.425 292.5,268.5 Z"/></g>
<g><path style="opacity:1" fill="#5db2f8" d="M 22.5,334.5 C 35.8751,332.71 41.7084,338.377 40,351.5C 37.0792,358.378 31.9125,361.211 24.5,360C 15.053,355.62 12.553,348.787 17,339.5C 18.7297,337.598 20.563,335.931 22.5,334.5 Z"/></g>
<g><path style="opacity:1" fill="#25a2f8" d="M 478.5,334.5 C 492.487,333.646 497.987,339.979 495,353.5C 488.906,361.462 481.906,362.462 474,356.5C 468.194,347.572 469.694,340.239 478.5,334.5 Z"/></g>
<g><path style="opacity:1" fill="#5db2f8" d="M 22.5,470.5 C 35.8751,468.71 41.7084,474.377 40,487.5C 37.0792,494.378 31.9125,497.211 24.5,496C 15.053,491.62 12.553,484.787 17,475.5C 18.7297,473.598 20.563,471.931 22.5,470.5 Z"/></g>
<g><path style="opacity:1" fill="#5db1f7" d="M 158.5,470.5 C 172.376,468.874 178.209,474.874 176,488.5C 171.251,496.628 164.751,498.461 156.5,494C 148.09,485.373 148.757,477.54 158.5,470.5 Z"/></g>
<g><path style="opacity:1" fill="#5db3f9" d="M 258.5,470.5 C 266.438,468.721 272.271,471.387 276,478.5C 277.295,492.429 271.128,497.929 257.5,495C 247.847,486.403 248.18,478.236 258.5,470.5 Z"/></g>
<g><path style="opacity:1" fill="#25a2f8" d="M 342.5,470.5 C 356.476,469.636 361.976,475.969 359,489.5C 353.749,496.722 347.249,498.222 339.5,494C 332.023,484.977 333.023,477.144 342.5,470.5 Z"/></g>
<g><path style="opacity:1" fill="#25a2f8" d="M 478.5,470.5 C 492.453,469.615 497.953,475.948 495,489.5C 488.391,497.934 481.057,498.601 473,491.5C 468.302,482.658 470.135,475.658 478.5,470.5 Z"/></g>
</svg>
