<?xml version="1.0" standalone="no"?>
<!DOCTYPE svg PUBLIC "-//W3C//DTD SVG 20010904//EN"
 "http://www.w3.org/TR/2001/REC-SVG-20010904/DTD/svg10.dtd">
<svg version="1.0" xmlns="http://www.w3.org/2000/svg"
 width="256.000000pt" height="256.000000pt" viewBox="0 0 256.000000 256.000000"
 preserveAspectRatio="xMidYMid meet">

<g transform="translate(0.000000,256.000000) scale(0.100000,-0.100000)"
fill="#000000" stroke="none">
<path d="M1156 2545 c-248 -63 -411 -274 -409 -530 1 -181 87 -339 239 -441
42 -27 71 -59 124 -139 84 -126 107 -145 170 -145 63 0 86 19 170 145 54 80
82 112 125 140 150 100 237 261 238 440 2 238 -140 439 -363 515 -83 29 -213
35 -294 15z"/>
<path d="M395 1145 c-25 -24 -25 -24 -25 -234 l0 -209 31 -26 c18 -15 43 -26
60 -26 l29 0 0 -65 0 -65 -35 0 c-25 0 -44 -8 -60 -25 -25 -24 -25 -24 -25
-234 l0 -209 31 -26 31 -26 848 0 848 0 31 26 31 26 0 209 c0 210 0 210 -25
234 -16 17 -35 25 -60 25 l-35 0 0 65 0 65 29 0 c17 0 42 11 60 26 l31 26 0
209 c0 210 0 210 -25 234 l-24 25 -861 0 -861 0 -24 -25z m1720 -120 l0 -70
-329 -3 c-223 -1 -334 -6 -343 -13 -17 -15 -17 -34 3 -53 13 -14 59 -16 345
-16 l329 0 0 -70 0 -70 -840 0 -840 0 0 178 c0 98 3 182 7 185 3 4 380 6 837
5 l831 -3 0 -70z m3 -652 l3 -73 -334 0 c-337 0 -357 -2 -357 -36 0 -7 7 -20
16 -28 13 -14 59 -16 345 -16 l329 0 0 -70 0 -70 -840 0 -840 0 0 178 c0 98 3
182 7 185 3 4 380 6 837 5 l831 -3 3 -72z"/>
<path d="M559 1021 c-27 -27 -29 -35 -29 -100 0 -38 4 -81 10 -95 13 -36 59
-56 130 -56 109 0 140 33 140 150 0 59 -4 73 -26 99 -25 30 -28 31 -111 31
-80 0 -86 -2 -114 -29z m169 -108 l3 -63 -61 0 -60 0 0 58 c0 32 3 62 7 66 4
4 30 6 58 4 l50 -3 3 -62z"/>
<path d="M959 1021 c-27 -27 -29 -35 -29 -100 0 -38 4 -81 10 -95 13 -36 59
-56 130 -56 109 0 140 33 140 150 0 59 -4 73 -26 99 -25 30 -28 31 -111 31
-80 0 -86 -2 -114 -29z m169 -108 l3 -63 -61 0 -60 0 0 59 c0 66 4 70 75 68
l40 -2 3 -62z"/>
<path d="M559 371 c-27 -27 -29 -35 -29 -100 0 -82 13 -117 51 -137 36 -18
130 -18 174 1 46 18 58 51 53 144 -3 65 -6 76 -31 97 -25 21 -38 24 -108 24
-76 0 -82 -2 -110 -29z m169 -108 l3 -63 -61 0 -60 0 0 58 c0 32 2 61 5 64 3
3 29 5 58 4 l52 -1 3 -62z"/>
<path d="M959 371 c-27 -27 -29 -35 -29 -100 0 -119 30 -151 142 -151 116 0
146 38 136 172 -4 51 -9 65 -32 85 -24 20 -38 23 -107 23 -76 0 -82 -2 -110
-29z m169 -108 l3 -63 -61 0 -60 0 0 58 c0 32 2 61 5 64 3 3 29 5 58 4 l52 -1
3 -62z"/>
</g>
</svg>
