<?xml version="1.0" encoding="UTF-8"?>
<!DOCTYPE svg PUBLIC "-//W3C//DTD SVG 1.1//EN" "http://www.w3.org/Graphics/SVG/1.1/DTD/svg11.dtd">
<svg xmlns="http://www.w3.org/2000/svg" version="1.1" width="512px" height="512px" style="shape-rendering:geometricPrecision; text-rendering:geometricPrecision; image-rendering:optimizeQuality; fill-rule:evenodd; clip-rule:evenodd" xmlns:xlink="http://www.w3.org/1999/xlink">
<g><path style="opacity:0.981" fill="#373d3d" d="M 249.5,14.5 C 257.134,13.9124 264.467,15.0791 271.5,18C 301.419,39.6549 334.419,54.9882 370.5,64C 382.163,68.3303 389.663,76.497 393,88.5C 394.377,101.454 394.877,114.454 394.5,127.5C 427.168,127.333 459.835,127.5 492.5,128C 494.487,129.319 495.654,131.152 496,133.5C 496.994,253.223 496.661,372.889 495,492.5C 494.5,494.333 493.333,495.5 491.5,496C 334.167,496.667 176.833,496.667 19.5,496C 17.6667,495.5 16.5,494.333 16,492.5C 14.3391,372.889 14.0058,253.223 15,133.5C 15.3459,131.152 16.5125,129.319 18.5,128C 51.165,127.5 83.8316,127.333 116.5,127.5C 116.173,114.462 116.673,101.462 118,88.5C 121.31,76.5221 128.81,68.3555 140.5,64C 175.998,55.5157 208.331,40.5157 237.5,19C 241.503,17.1506 245.503,15.6506 249.5,14.5 Z"/></g>
<g><path style="opacity:1" fill="#12a3db" d="M 250.5,29.5 C 255.705,29.1336 260.705,29.9669 265.5,32C 280.373,42.6055 296.039,51.9388 312.5,60C 331.505,68.0009 350.839,75.0009 370.5,81C 373.762,83.592 376.262,86.7587 378,90.5C 383.013,139.114 372.013,183.78 345,224.5C 323.957,255.211 298.457,281.711 268.5,304C 259.804,309.932 251.137,309.932 242.5,304C 211.499,281.001 185.332,253.501 164,221.5C 139.222,182.39 128.556,139.723 132,93.5C 133.239,88.2591 136.072,84.0925 140.5,81C 152.983,76.3724 165.65,72.039 178.5,68C 204.215,57.9814 228.215,45.148 250.5,29.5 Z"/></g>
<g><path style="opacity:1" fill="#383e3f" d="M 249.5,56.5 C 253.514,56.3345 257.514,56.5012 261.5,57C 289.267,73.8818 318.601,87.5485 349.5,98C 355.563,103.063 358.229,109.563 357.5,117.5C 355.94,150.345 346.44,180.679 329,208.5C 311.686,234.483 290.853,257.317 266.5,277C 259.14,280.286 251.807,280.286 244.5,277C 213.047,252.22 188.214,222.054 170,186.5C 158.647,162.066 153.313,136.4 154,109.5C 156.198,102.919 160.364,98.0853 166.5,95C 196.092,85.8646 223.758,73.0313 249.5,56.5 Z"/></g>
<g><path style="opacity:1" fill="#fdfdfd" d="M 253.5,70.5 C 256.425,70.4598 259.091,71.2932 261.5,73C 285.7,88.7649 311.7,100.765 339.5,109C 342.628,110.788 343.961,113.455 343.5,117C 341.043,154.049 328.543,187.216 306,216.5C 292.57,233.265 277.736,248.765 261.5,263C 257.5,266.333 253.5,266.333 249.5,263C 222.769,240.954 201.269,214.788 185,184.5C 174.643,164.074 168.81,142.407 167.5,119.5C 166.711,115.105 168.044,111.605 171.5,109C 200.857,100.151 228.191,87.3175 253.5,70.5 Z"/></g>
<g><path style="opacity:1" fill="#393f3f" d="M 248.5,113.5 C 274.883,112.718 287.717,125.384 287,151.5C 285.738,158.695 282.404,164.695 277,169.5C 277.033,179.646 278.367,189.646 281,199.5C 283.001,210.541 278.834,218.041 268.5,222C 259.833,222.667 251.167,222.667 242.5,222C 232.443,217.385 228.61,209.552 231,198.5C 233.087,189.227 234.42,179.894 235,170.5C 222.512,158.224 220.179,144.224 228,128.5C 233.329,121.323 240.162,116.323 248.5,113.5 Z"/></g>
<g><path style="opacity:1" fill="#616872" d="M 249.5,128.5 C 266.337,127.17 273.837,134.836 272,151.5C 269.72,155.447 267.053,159.113 264,162.5C 262.128,165.205 261.295,168.205 261.5,171.5C 263.086,182.012 264.753,192.512 266.5,203C 266.456,204.764 266.122,206.431 265.5,208C 259.167,208.667 252.833,208.667 246.5,208C 245.196,207.196 244.529,206.029 244.5,204.5C 246.5,193.83 248.5,183.163 250.5,172.5C 250.378,169.302 249.545,166.302 248,163.5C 233.536,150.937 234.036,139.27 249.5,128.5 Z"/></g>
<g><path style="opacity:1" fill="#f9a334" d="M 118.5,142.5 C 123.163,168.819 131.829,193.819 144.5,217.5C 106.5,217.5 68.5,217.5 30.5,217.5C 30.5,192.5 30.5,167.5 30.5,142.5C 59.8333,142.5 89.1667,142.5 118.5,142.5 Z"/></g>
<g><path style="opacity:1" fill="#f9a334" d="M 392.5,142.5 C 421.833,142.5 451.167,142.5 480.5,142.5C 480.5,167.5 480.5,192.5 480.5,217.5C 442.5,217.5 404.5,217.5 366.5,217.5C 379.169,193.823 387.836,168.823 392.5,142.5 Z"/></g>
<g><path style="opacity:1" fill="#8c6a39" d="M 118.5,142.5 C 89.1667,142.5 59.8333,142.5 30.5,142.5C 30.5,167.5 30.5,192.5 30.5,217.5C 68.5,217.5 106.5,217.5 144.5,217.5C 106.906,218.499 68.5727,218.833 29.5,218.5C 29.5,192.833 29.5,167.167 29.5,141.5C 59.338,141.169 89.0047,141.502 118.5,142.5 Z"/></g>
<g><path style="opacity:1" fill="#8c6a39" d="M 392.5,142.5 C 421.995,141.502 451.662,141.169 481.5,141.5C 481.5,167.167 481.5,192.833 481.5,218.5C 442.427,218.833 404.094,218.499 366.5,217.5C 404.5,217.5 442.5,217.5 480.5,217.5C 480.5,192.5 480.5,167.5 480.5,142.5C 451.167,142.5 421.833,142.5 392.5,142.5 Z"/></g>
<g><path style="opacity:1" fill="#f9a334" d="M 223.5,307.5 C 187.671,308.498 151.671,308.832 115.5,308.5C 115.5,283.167 115.5,257.833 115.5,232.5C 128.504,232.333 141.504,232.5 154.5,233C 173.831,261.167 196.831,286 223.5,307.5 Z"/></g>
<g><path style="opacity:1" fill="#f9a334" d="M 395.5,308.5 C 359.329,308.832 323.329,308.498 287.5,307.5C 314.169,286 337.169,261.167 356.5,233C 369.496,232.5 382.496,232.333 395.5,232.5C 395.5,257.833 395.5,283.167 395.5,308.5 Z"/></g>
<g><path style="opacity:1" fill="#b98237" d="M 30.5,232.5 C 30.5,257.833 30.5,283.167 30.5,308.5C 53.8333,308.5 77.1667,308.5 100.5,308.5C 100.5,283.167 100.5,257.833 100.5,232.5C 101.498,257.995 101.831,283.661 101.5,309.5C 77.5,309.5 53.5,309.5 29.5,309.5C 29.1689,283.661 29.5022,257.995 30.5,232.5 Z"/></g>
<g><path style="opacity:1" fill="#f9a334" d="M 30.5,232.5 C 53.8333,232.5 77.1667,232.5 100.5,232.5C 100.5,257.833 100.5,283.167 100.5,308.5C 77.1667,308.5 53.8333,308.5 30.5,308.5C 30.5,283.167 30.5,257.833 30.5,232.5 Z"/></g>
<g><path style="opacity:1" fill="#df9535" d="M 223.5,307.5 C 224.289,307.783 224.956,308.283 225.5,309C 188.664,309.831 151.998,309.664 115.5,308.5C 151.671,308.832 187.671,308.498 223.5,307.5 Z"/></g>
<g><path style="opacity:1" fill="#df9535" d="M 287.5,307.5 C 323.329,308.498 359.329,308.832 395.5,308.5C 359.002,309.664 322.336,309.831 285.5,309C 286.044,308.283 286.711,307.783 287.5,307.5 Z"/></g>
<g><path style="opacity:1" fill="#b98237" d="M 410.5,232.5 C 410.5,257.833 410.5,283.167 410.5,308.5C 433.833,308.5 457.167,308.5 480.5,308.5C 480.5,283.167 480.5,257.833 480.5,232.5C 481.498,257.995 481.831,283.661 481.5,309.5C 457.5,309.5 433.5,309.5 409.5,309.5C 409.169,283.661 409.502,257.995 410.5,232.5 Z"/></g>
<g><path style="opacity:1" fill="#f9a334" d="M 410.5,232.5 C 433.833,232.5 457.167,232.5 480.5,232.5C 480.5,257.833 480.5,283.167 480.5,308.5C 457.167,308.5 433.833,308.5 410.5,308.5C 410.5,283.167 410.5,257.833 410.5,232.5 Z"/></g>
<g><path style="opacity:1" fill="#a77737" d="M 167.5,324.5 C 121.833,324.5 76.1667,324.5 30.5,324.5C 30.5,349.5 30.5,374.5 30.5,399.5C 29.5023,374.339 29.1689,349.005 29.5,323.5C 75.6697,323.168 121.67,323.501 167.5,324.5 Z"/></g>
<g><path style="opacity:1" fill="#a77737" d="M 343.5,324.5 C 389.33,323.501 435.33,323.168 481.5,323.5C 481.831,349.005 481.498,374.339 480.5,399.5C 480.5,374.5 480.5,349.5 480.5,324.5C 434.833,324.5 389.167,324.5 343.5,324.5 Z"/></g>
<g><path style="opacity:1" fill="#f9a433" d="M 167.5,324.5 C 167.5,349.5 167.5,374.5 167.5,399.5C 121.833,399.5 76.1667,399.5 30.5,399.5C 30.5,374.5 30.5,349.5 30.5,324.5C 76.1667,324.5 121.833,324.5 167.5,324.5 Z"/></g>
<g><path style="opacity:1" fill="#f8a334" d="M 182.5,323.5 C 231.167,323.5 279.833,323.5 328.5,323.5C 328.5,348.833 328.5,374.167 328.5,399.5C 279.833,399.5 231.167,399.5 182.5,399.5C 182.5,374.167 182.5,348.833 182.5,323.5 Z"/></g>
<g><path style="opacity:1" fill="#f9a433" d="M 343.5,324.5 C 389.167,324.5 434.833,324.5 480.5,324.5C 480.5,349.5 480.5,374.5 480.5,399.5C 434.833,399.5 389.167,399.5 343.5,399.5C 343.5,374.5 343.5,349.5 343.5,324.5 Z"/></g>
<g><path style="opacity:1" fill="#f8a334" d="M 29.5,414.5 C 62.1667,414.5 94.8333,414.5 127.5,414.5C 127.5,436.833 127.5,459.167 127.5,481.5C 94.8333,481.5 62.1667,481.5 29.5,481.5C 29.5,459.167 29.5,436.833 29.5,414.5 Z"/></g>
<g><path style="opacity:1" fill="#f8a334" d="M 141.5,414.5 C 177.167,414.5 212.833,414.5 248.5,414.5C 248.5,436.833 248.5,459.167 248.5,481.5C 212.833,481.5 177.167,481.5 141.5,481.5C 141.5,459.167 141.5,436.833 141.5,414.5 Z"/></g>
<g><path style="opacity:1" fill="#f8a334" d="M 262.5,414.5 C 298.167,414.5 333.833,414.5 369.5,414.5C 369.5,436.833 369.5,459.167 369.5,481.5C 333.833,481.5 298.167,481.5 262.5,481.5C 262.5,459.167 262.5,436.833 262.5,414.5 Z"/></g>
<g><path style="opacity:1" fill="#f8a334" d="M 383.5,414.5 C 416.167,414.5 448.833,414.5 481.5,414.5C 481.5,436.833 481.5,459.167 481.5,481.5C 448.833,481.5 416.167,481.5 383.5,481.5C 383.5,459.167 383.5,436.833 383.5,414.5 Z"/></g>
</svg>
