<?xml version="1.0" encoding="UTF-8"?>
<!DOCTYPE svg PUBLIC "-//W3C//DTD SVG 1.1//EN" "http://www.w3.org/Graphics/SVG/1.1/DTD/svg11.dtd">
<svg xmlns="http://www.w3.org/2000/svg" version="1.1" width="205px" height="205px" style="shape-rendering:geometricPrecision; text-rendering:geometricPrecision; image-rendering:optimizeQuality; fill-rule:evenodd; clip-rule:evenodd" xmlns:xlink="http://www.w3.org/1999/xlink">
<g><path style="opacity:0.922" fill="#00aaf3" d="M 71.5,66.5 C 73.5,66.5 75.5,66.5 77.5,66.5C 77.5,78.1667 77.5,89.8333 77.5,101.5C 64.1667,101.5 50.8333,101.5 37.5,101.5C 37.5,91.5 37.5,81.5 37.5,71.5C 49.0045,70.148 60.3379,68.4813 71.5,66.5 Z"/></g>
<g><path style="opacity:0.934" fill="#00aaf3" d="M 28.5,72.5 C 30.5,72.5 32.5,72.5 34.5,72.5C 34.5,82.1667 34.5,91.8333 34.5,101.5C 24.5,101.5 14.5,101.5 4.5,101.5C 4.5,93.1667 4.5,84.8333 4.5,76.5C 12.7413,75.8086 20.7413,74.4753 28.5,72.5 Z"/></g>
<g><path style="opacity:0.603" fill="#000000" d="M 88.5,88.5 C 89.8333,88.5 91.1667,88.5 92.5,88.5C 94.0295,93.2495 95.8628,97.9162 98,102.5C 100.186,98.286 102.186,93.9526 104,89.5C 105.011,88.6634 106.178,88.33 107.5,88.5C 107.5,94.8333 107.5,101.167 107.5,107.5C 106.5,107.5 105.5,107.5 104.5,107.5C 104.665,103.818 104.499,100.152 104,96.5C 102.178,100.144 100.344,103.811 98.5,107.5C 95.6802,103.892 93.5135,99.8923 92,95.5C 91.5012,99.4862 91.3345,103.486 91.5,107.5C 90.5,107.5 89.5,107.5 88.5,107.5C 88.5,101.167 88.5,94.8333 88.5,88.5 Z"/></g>
<g><path style="opacity:0.628" fill="#000000" d="M 110.5,88.5 C 111.5,88.5 112.5,88.5 113.5,88.5C 113.5,89.5 113.5,90.5 113.5,91.5C 112.5,91.5 111.5,91.5 110.5,91.5C 110.5,90.5 110.5,89.5 110.5,88.5 Z"/></g>
<g><path style="opacity:0.601" fill="#000000" d="M 177.5,88.5 C 178.833,88.5 180.167,88.5 181.5,88.5C 181.649,89.552 181.483,90.552 181,91.5C 179.869,90.3961 179.035,90.7295 178.5,92.5C 179.991,93.2436 181.491,93.9103 183,94.5C 183.196,92.7139 184.029,91.3805 185.5,90.5C 186.563,92.4347 187.897,94.1014 189.5,95.5C 188.675,96.3857 187.675,96.719 186.5,96.5C 186.183,99.5719 186.516,102.572 187.5,105.5C 189.214,104.391 189.881,105.058 189.5,107.5C 187.459,107.146 185.626,107.146 184,107.5C 183.501,103.848 183.335,100.182 183.5,96.5C 181.833,96.5 180.167,96.5 178.5,96.5C 178.5,100.167 178.5,103.833 178.5,107.5C 177.5,107.5 176.5,107.5 175.5,107.5C 175.997,103.241 175.331,99.2408 173.5,95.5C 175.582,93.5779 176.916,91.2445 177.5,88.5 Z"/></g>
<g><path style="opacity:0.541" fill="#000000" d="M 111.5,93.5 C 113.436,97.7147 114.103,102.381 113.5,107.5C 112.5,107.5 111.5,107.5 110.5,107.5C 110.226,102.737 110.559,98.0704 111.5,93.5 Z"/></g>
<g><path style="opacity:0.625" fill="#000000" d="M 125.5,106.5 C 119.994,108.581 116.661,106.747 115.5,101C 116.35,95.1721 119.516,93.0055 125,94.5C 125.374,95.4162 125.874,96.2496 126.5,97C 120.594,95.2389 118.094,97.4056 119,103.5C 121.112,105.922 123.112,105.922 125,103.5C 125.483,104.448 125.649,105.448 125.5,106.5 Z"/></g>
<g><path style="opacity:0.554" fill="#000000" d="M 128.5,93.5 C 129.75,93.5774 130.583,94.244 131,95.5C 132.612,92.9211 134.112,92.9211 135.5,95.5C 134.009,96.2436 132.509,96.9103 131,97.5C 130.502,100.817 130.335,104.15 130.5,107.5C 129.5,107.5 128.5,107.5 127.5,107.5C 127.226,102.737 127.559,98.0704 128.5,93.5 Z"/></g>
<g><path style="opacity:0.65" fill="#000000" d="M 139.5,93.5 C 147.312,94.1484 149.646,97.9818 146.5,105C 146.833,105.333 147.167,105.667 147.5,106C 138.519,109.776 134.686,106.943 136,97.5C 137.102,96.051 138.269,94.7177 139.5,93.5 Z M 139.5,96.5 C 145.643,97.0262 146.976,99.8595 143.5,105C 142.101,105.595 140.768,105.428 139.5,104.5C 138.271,101.801 138.271,99.1346 139.5,96.5 Z"/></g>
<g><path style="opacity:0.64" fill="#000000" d="M 153.5,93.5 C 156.757,93.174 158.257,94.5073 158,97.5C 156.186,96.2404 154.353,96.2404 152.5,97.5C 154.797,98.8976 156.963,100.564 159,102.5C 159.814,95.0224 163.647,92.5224 170.5,95C 172.923,98.3793 173.09,101.879 171,105.5C 166.585,108.55 162.918,107.883 160,103.5C 157.749,107.126 154.582,108.293 150.5,107C 149.483,105.951 149.316,104.784 150,103.5C 152.123,105.672 154.289,105.839 156.5,104C 153.508,102.685 151.175,100.685 149.5,98C 150.344,95.9933 151.677,94.4933 153.5,93.5 Z M 163.5,96.5 C 169.367,96.2056 171.033,98.8723 168.5,104.5C 166.504,105.61 164.671,105.276 163,103.5C 162.444,101.115 162.61,98.7819 163.5,96.5 Z"/></g>
<g><path style="opacity:0.925" fill="#00aaf3" d="M 4.5,103.5 C 14.5,103.5 24.5,103.5 34.5,103.5C 34.6665,113.506 34.4998,123.506 34,133.5C 24.3618,131.67 14.6951,130.004 5,128.5C 4.50027,120.173 4.3336,111.84 4.5,103.5 Z"/></g>
<g><path style="opacity:0.917" fill="#00aaf3" d="M 37.5,103.5 C 50.5043,103.333 63.5043,103.5 76.5,104C 77.4882,115.753 77.8215,127.586 77.5,139.5C 64.1652,137.5 50.8318,135.5 37.5,133.5C 37.5,123.5 37.5,113.5 37.5,103.5 Z"/></g>
<g><path style="opacity:0.004" fill="#000000" d="M 125.5,106.5 C 126.833,107.167 126.833,107.167 125.5,106.5 Z"/></g>
<g><path style="opacity:0.004" fill="#000000" d="M 98.5,112.5 C 99.8333,113.167 99.8333,113.167 98.5,112.5 Z"/></g>
<g><path style="opacity:0.004" fill="#000000" d="M 140.5,113.5 C 139.833,112.167 139.833,112.167 140.5,113.5 Z"/></g>
<g><path style="opacity:0.565" fill="#000000" d="M 98.5,113.5 C 98.5,117.833 98.5,122.167 98.5,126.5C 96.6921,125.082 96.0254,123.082 96.5,120.5C 94.4727,120.338 92.4727,120.505 90.5,121C 91.4061,122.699 91.7394,124.533 91.5,126.5C 90.5,126.5 89.5,126.5 88.5,126.5C 88.5,122.167 88.5,117.833 88.5,113.5C 89.5,113.5 90.5,113.5 91.5,113.5C 91.7394,115.467 91.4061,117.301 90.5,119C 92.4727,119.495 94.4727,119.662 96.5,119.5C 96.0254,116.918 96.6921,114.918 98.5,113.5 Z"/></g>
<g><path style="opacity:0.612" fill="#000000" d="M 140.5,113.5 C 141.496,113.414 142.329,113.748 143,114.5C 143.714,117.595 144.714,120.595 146,123.5C 146.873,120.382 148.039,117.382 149.5,114.5C 150.365,113.417 151.365,113.251 152.5,114C 150.152,117.873 148.486,122.039 147.5,126.5C 146.325,126.719 145.325,126.386 144.5,125.5C 142.957,121.539 141.624,117.539 140.5,113.5 Z"/></g>
<g><path style="opacity:0.503" fill="#000000" d="M 99.5,116.5 C 100.496,116.414 101.329,116.748 102,117.5C 103.232,125.407 104.732,125.407 106.5,117.5C 107.359,116.226 108.026,116.392 108.5,118C 107,121.833 105.5,125.667 104,129.5C 102.612,130.554 101.112,130.72 99.5,130C 101.41,129.592 102.41,128.425 102.5,126.5C 101.481,123.14 100.481,119.807 99.5,116.5 Z"/></g>
<g><path style="opacity:0.596" fill="#000000" d="M 109.5,116.5 C 111.39,117.18 113.39,117.347 115.5,117C 117,117.833 118.167,119 119,120.5C 120.029,117.125 122.196,115.958 125.5,117C 126.861,118.584 127.528,120.418 127.5,122.5C 125.143,122.337 122.81,122.503 120.5,123C 122.193,125.952 124.026,126.118 126,123.5C 126.483,124.448 126.649,125.448 126.5,126.5C 124.473,126.662 122.473,126.495 120.5,126C 119.471,122.943 118.138,122.943 116.5,126C 114.866,126.494 113.199,126.66 111.5,126.5C 111.762,127.978 111.429,129.311 110.5,130.5C 109.507,125.88 109.173,121.214 109.5,116.5 Z M 112.5,118.5 C 117.451,120.089 117.784,122.422 113.5,125.5C 111.239,123.516 110.906,121.183 112.5,118.5 Z M 122.5,118.5 C 124.686,118.511 125.519,119.511 125,121.5C 123.933,120.809 122.766,120.309 121.5,120C 122.056,119.617 122.389,119.117 122.5,118.5 Z"/></g>
<g><path style="opacity:0.635" fill="#000000" d="M 128.5,116.5 C 130.225,117.278 131.891,117.611 133.5,117.5C 132.758,118.287 131.925,118.953 131,119.5C 130.814,121.9 130.314,124.234 129.5,126.5C 128.513,123.232 128.18,119.898 128.5,116.5 Z"/></g>
<g><path style="opacity:0.004" fill="#000000" d="M 139.5,119.5 C 140.833,120.167 140.833,120.167 139.5,119.5 Z"/></g>
<g><path style="opacity:0.546" fill="#000000" d="M 139.5,120.5 C 137.879,122.976 135.879,123.142 133.5,121C 135.473,120.505 137.473,120.338 139.5,120.5 Z"/></g>
<g><path style="opacity:0.004" fill="#000000" d="M 98.5,126.5 C 99.8333,127.167 99.8333,127.167 98.5,126.5 Z"/></g>
</svg>
