<?xml version="1.0" encoding="UTF-8"?>
<!DOCTYPE svg PUBLIC "-//W3C//DTD SVG 1.1//EN" "http://www.w3.org/Graphics/SVG/1.1/DTD/svg11.dtd">
<svg xmlns="http://www.w3.org/2000/svg" version="1.1" width="512px" height="512px" style="shape-rendering:geometricPrecision; text-rendering:geometricPrecision; image-rendering:optimizeQuality; fill-rule:evenodd; clip-rule:evenodd" xmlns:xlink="http://www.w3.org/1999/xlink">
<g><path style="opacity:0.955" fill="#010201" d="M 251.5,21.5 C 256.675,21.272 261.675,22.1053 266.5,24C 306.299,58.9593 352.633,80.2926 405.5,88C 425.065,90.9898 444.732,92.9898 464.5,94C 474.112,96.6113 479.945,102.778 482,112.5C 493.067,195.109 478.4,272.776 438,345.5C 397.679,411.256 341.513,458.09 269.5,486C 260.167,490.667 250.833,490.667 241.5,486C 140.898,446.065 74.0649,374.565 41,271.5C 25.9007,219.345 21.9007,166.345 29,112.5C 31.0549,102.778 36.8883,96.6113 46.5,94C 92.9732,93.0346 137.64,83.7012 180.5,66C 203.057,55.8992 223.391,42.5659 241.5,26C 244.703,23.9971 248.036,22.4971 251.5,21.5 Z"/></g>
<g><path style="opacity:1" fill="#70d689" d="M 464.5,235.5 C 436.678,303.995 391.678,358.328 329.5,398.5C 328.893,398.376 328.56,398.043 328.5,397.5C 388.241,349.056 423.408,286.389 434,209.5C 436.324,187.888 436.991,166.221 436,144.5C 435.5,142.667 434.333,141.5 432.5,141C 382.153,136.664 334.486,122.998 289.5,100C 279.32,94.4128 269.654,88.0795 260.5,81C 257.167,79 253.833,79 250.5,81C 214.358,106.839 174.358,124.173 130.5,133C 112.87,135.947 95.2033,138.614 77.5,141C 69.114,224.18 91.614,298.013 145,362.5C 156.759,374.762 168.926,386.429 181.5,397.5C 137.899,370.399 102.399,335.066 75,291.5C 64.6575,273.147 55.1575,254.48 46.5,235.5C 38.6565,195.037 37.4899,154.37 43,113.5C 43.7845,111.714 44.9512,110.214 46.5,109C 68.2096,106.995 89.8763,104.328 111.5,101C 164.167,92.8246 210.5,71.4913 250.5,37C 253.833,35 257.167,35 260.5,37C 303.058,73.601 352.391,95.601 408.5,103C 427.184,105.295 445.851,107.295 464.5,109C 467.712,111.731 469.212,115.231 469,119.5C 473.428,158.418 471.928,197.085 464.5,235.5 Z"/></g>
<g><path style="opacity:1" fill="#020403" d="M 328.5,397.5 C 306.472,415.021 282.139,428.687 255.5,438.5C 243.383,434.444 231.717,429.277 220.5,423C 207.101,414.977 194.101,406.477 181.5,397.5C 168.926,386.429 156.759,374.762 145,362.5C 91.614,298.013 69.114,224.18 77.5,141C 95.2033,138.614 112.87,135.947 130.5,133C 174.358,124.173 214.358,106.839 250.5,81C 253.833,79 257.167,79 260.5,81C 269.654,88.0795 279.32,94.4128 289.5,100C 334.486,122.998 382.153,136.664 432.5,141C 434.333,141.5 435.5,142.667 436,144.5C 436.991,166.221 436.324,187.888 434,209.5C 423.408,286.389 388.241,349.056 328.5,397.5 Z"/></g>
<g><path style="opacity:1" fill="#82dbfd" d="M 418.5,220.5 C 390.845,295.597 340.845,350.431 268.5,385C 260.655,389.185 252.655,389.518 244.5,386C 171.324,351.997 120.991,297.163 93.5,221.5C 88.8518,198.89 86.8518,175.89 87.5,152.5C 148.67,147.667 204.67,128.334 255.5,94.5C 305.985,128.386 361.651,147.886 422.5,153C 423.804,175.588 422.471,198.088 418.5,220.5 Z"/></g>
<g><path style="opacity:1" fill="#cbfaff" d="M 195.5,146.5 C 202.799,145.371 205.965,148.371 205,155.5C 204.535,156.931 203.701,158.097 202.5,159C 198.682,160.944 194.682,161.611 190.5,161C 187.651,158.441 186.817,155.274 188,151.5C 190.17,149.177 192.67,147.51 195.5,146.5 Z"/></g>
<g><path style="opacity:1" fill="#cbfaff" d="M 164.5,156.5 C 171.674,155.519 175.174,158.519 175,165.5C 174.167,167 173,168.167 171.5,169C 151.337,175.833 130.67,179.833 109.5,181C 105.346,176.601 105.679,172.601 110.5,169C 121.11,166.745 131.777,164.745 142.5,163C 150.042,161.12 157.376,158.953 164.5,156.5 Z"/></g>
<g><path style="opacity:1" fill="#020302" d="M 247.5,162.5 C 273.142,161.005 289.976,172.339 298,196.5C 298.5,207.828 298.667,219.162 298.5,230.5C 314.249,231.094 324.749,238.761 330,253.5C 330.667,277.167 330.667,300.833 330,324.5C 327.232,336.267 320.065,343.767 308.5,347C 290.375,348.133 272.208,348.633 254,348.5C 237.5,348.333 221,348.167 204.5,348C 192,344.833 184.167,337 181,324.5C 180.333,300.833 180.333,277.167 181,253.5C 186.278,238.726 196.778,231.06 212.5,230.5C 212.333,219.162 212.5,207.828 213,196.5C 218.42,178.913 229.92,167.58 247.5,162.5 Z"/></g>
<g><path style="opacity:1" fill="#81dafc" d="M 247.5,176.5 C 266.244,174.091 278.744,181.758 285,199.5C 285.5,209.828 285.666,220.161 285.5,230.5C 265.5,230.5 245.5,230.5 225.5,230.5C 225.067,219.09 225.567,207.756 227,196.5C 231.106,186.893 237.939,180.226 247.5,176.5 Z"/></g>
<g><path style="opacity:1" fill="#5eaed9" d="M 418.5,220.5 C 399.627,317.02 345.294,385.02 255.5,424.5C 165.956,385.281 111.956,317.614 93.5,221.5C 120.991,297.163 171.324,351.997 244.5,386C 252.655,389.518 260.655,389.185 268.5,385C 340.845,350.431 390.845,295.597 418.5,220.5 Z"/></g>
<g><path style="opacity:1" fill="#52b875" d="M 46.5,235.5 C 55.1575,254.48 64.6575,273.147 75,291.5C 102.399,335.066 137.899,370.399 181.5,397.5C 194.101,406.477 207.101,414.977 220.5,423C 231.717,429.277 243.383,434.444 255.5,438.5C 282.139,428.687 306.472,415.021 328.5,397.5C 328.56,398.043 328.893,398.376 329.5,398.5C 391.678,358.328 436.678,303.995 464.5,235.5C 441.506,341.638 381.173,418.138 283.5,465C 274.338,468.998 265.004,472.498 255.5,475.5C 169.448,445.619 107.282,389.286 69,306.5C 59.1865,283.56 51.6865,259.893 46.5,235.5 Z"/></g>
<g><path style="opacity:1" fill="#fbd707" d="M 285.5,244.5 C 288.431,248.025 290.598,252.025 292,256.5C 292.667,278.167 292.667,299.833 292,321.5C 291.011,326.312 288.844,330.479 285.5,334C 259.835,334.5 234.169,334.667 208.5,334.5C 200.718,333.555 195.884,329.222 194,321.5C 193.333,300.167 193.333,278.833 194,257.5C 196.079,251.753 199.912,247.586 205.5,245C 232.165,244.5 258.831,244.333 285.5,244.5 Z"/></g>
<g><path style="opacity:1" fill="#d1b004" d="M 285.5,244.5 C 292.921,244.109 300.254,244.609 307.5,246C 312.144,248.641 315.311,252.475 317,257.5C 317.667,278.833 317.667,300.167 317,321.5C 315.062,329.105 310.228,333.605 302.5,335C 270.997,335.831 239.664,335.664 208.5,334.5C 234.169,334.667 259.835,334.5 285.5,334C 288.844,330.479 291.011,326.312 292,321.5C 292.667,299.833 292.667,278.167 292,256.5C 290.598,252.025 288.431,248.025 285.5,244.5 Z"/></g>
<g><path style="opacity:1" fill="#0e0b01" d="M 252.5,276.5 C 256.684,275.704 259.85,277.037 262,280.5C 262.667,286.5 262.667,292.5 262,298.5C 257.667,305.167 253.333,305.167 249,298.5C 248.333,292.5 248.333,286.5 249,280.5C 249.69,278.65 250.856,277.316 252.5,276.5 Z"/></g>
</svg>
