<?xml version="1.0" encoding="UTF-8"?>
<!DOCTYPE svg PUBLIC "-//W3C//DTD SVG 1.1//EN" "http://www.w3.org/Graphics/SVG/1.1/DTD/svg11.dtd">
<svg xmlns="http://www.w3.org/2000/svg" version="1.1" width="512px" height="512px" style="shape-rendering:geometricPrecision; text-rendering:geometricPrecision; image-rendering:optimizeQuality; fill-rule:evenodd; clip-rule:evenodd" xmlns:xlink="http://www.w3.org/1999/xlink">
<g><path style="opacity:0.997" fill="#202d67" d="M 287.5,330.5 C 285.983,330.489 284.816,329.823 284,328.5C 283.5,259.834 283.333,191.167 283.5,122.5C 283.666,117.821 283.499,113.155 283,108.5C 282.5,107.333 281.667,106.5 280.5,106C 235.833,105.333 191.167,105.333 146.5,106C 144.667,106.5 143.5,107.667 143,109.5C 142.333,207.5 142.333,305.5 143,403.5C 143.5,404 144,404.5 144.5,405C 149.489,405.499 154.489,405.666 159.5,405.5C 200.501,405.333 241.501,405.5 282.5,406C 283.381,406.708 284.047,407.542 284.5,408.5C 284.67,409.822 284.337,410.989 283.5,412C 236.5,412.667 189.5,412.667 142.5,412C 139,411.167 136.833,409 136,405.5C 135.333,306.5 135.333,207.5 136,108.5C 137.068,103.765 139.901,100.598 144.5,99C 190.5,98.3333 236.5,98.3333 282.5,99C 287.551,100.717 290.385,104.217 291,109.5C 291.667,182.167 291.667,254.833 291,327.5C 290.578,329.426 289.411,330.426 287.5,330.5 Z"/></g>
<g><path style="opacity:1" fill="#f7f8fa" d="M 283.5,122.5 C 279.6,121.57 275.6,121.237 271.5,121.5C 271.527,115.984 269.36,114.651 265,117.5C 264.51,118.793 264.343,120.127 264.5,121.5C 261.833,121.5 259.167,121.5 256.5,121.5C 256.527,115.984 254.36,114.651 250,117.5C 249.51,118.793 249.343,120.127 249.5,121.5C 231.5,121.5 213.5,121.5 195.5,121.5C 189.428,116.244 183.428,116.244 177.5,121.5C 174.833,121.5 172.167,121.5 169.5,121.5C 160.055,114.628 153.721,116.795 150.5,128C 150.371,133.697 153.038,137.197 158.5,138.5C 158.5,145.167 158.5,151.833 158.5,158.5C 155.941,158.198 153.607,158.532 151.5,159.5C 149.353,160.932 149.02,162.765 150.5,165C 153.146,165.497 155.813,165.664 158.5,165.5C 158.5,172.167 158.5,178.833 158.5,185.5C 150.779,188.954 148.613,194.62 152,202.5C 153.805,204.826 155.972,206.492 158.5,207.5C 158.5,213.167 158.5,218.833 158.5,224.5C 156.143,224.337 153.81,224.503 151.5,225C 149.398,226.733 149.065,228.733 150.5,231C 153.146,231.497 155.813,231.664 158.5,231.5C 158.5,238.833 158.5,246.167 158.5,253.5C 150.769,256.971 148.603,262.638 152,270.5C 153.638,272.734 155.805,274.067 158.5,274.5C 158.5,281.5 158.5,288.5 158.5,295.5C 155.482,295.335 152.482,295.502 149.5,296C 148.167,297.667 148.167,299.333 149.5,301C 152.482,301.498 155.482,301.665 158.5,301.5C 158.174,336.24 158.507,370.906 159.5,405.5C 154.489,405.666 149.489,405.499 144.5,405C 144,404.5 143.5,404 143,403.5C 142.333,305.5 142.333,207.5 143,109.5C 143.5,107.667 144.667,106.5 146.5,106C 191.167,105.333 235.833,105.333 280.5,106C 281.667,106.5 282.5,107.333 283,108.5C 283.499,113.155 283.666,117.821 283.5,122.5 Z"/></g>
<g><path style="opacity:1" fill="#24326c" d="M 256.5,121.5 C 256.666,127.176 256.499,132.843 256,138.5C 253.916,141.033 251.916,141.033 250,138.5C 249.501,132.843 249.334,127.176 249.5,121.5C 249.343,120.127 249.51,118.793 250,117.5C 254.36,114.651 256.527,115.984 256.5,121.5 Z"/></g>
<g><path style="opacity:1" fill="#25346e" d="M 271.5,121.5 C 271.666,127.176 271.499,132.843 271,138.5C 269.267,140.602 267.267,140.935 265,139.5C 264.501,133.509 264.334,127.509 264.5,121.5C 264.343,120.127 264.51,118.793 265,117.5C 269.36,114.651 271.527,115.984 271.5,121.5 Z"/></g>
<g><path style="opacity:1" fill="#263068" d="M 169.5,121.5 C 172.997,128.201 171.664,133.701 165.5,138C 163.19,138.497 160.857,138.663 158.5,138.5C 153.038,137.197 150.371,133.697 150.5,128C 153.721,116.795 160.055,114.628 169.5,121.5 Z"/></g>
<g><path style="opacity:1" fill="#24306a" d="M 195.5,121.5 C 199.038,133.803 194.371,139.303 181.5,138C 175.523,133.579 174.19,128.079 177.5,121.5C 183.428,116.244 189.428,116.244 195.5,121.5 Z"/></g>
<g><path style="opacity:1" fill="#5bacfd" d="M 169.5,121.5 C 172.167,121.5 174.833,121.5 177.5,121.5C 174.19,128.079 175.523,133.579 181.5,138C 194.371,139.303 199.038,133.803 195.5,121.5C 213.5,121.5 231.5,121.5 249.5,121.5C 249.334,127.176 249.501,132.843 250,138.5C 251.916,141.033 253.916,141.033 256,138.5C 256.499,132.843 256.666,127.176 256.5,121.5C 259.167,121.5 261.833,121.5 264.5,121.5C 264.334,127.509 264.501,133.509 265,139.5C 267.267,140.935 269.267,140.602 271,138.5C 271.499,132.843 271.666,127.176 271.5,121.5C 275.6,121.237 279.6,121.57 283.5,122.5C 283.333,191.167 283.5,259.834 284,328.5C 284.816,329.823 285.983,330.489 287.5,330.5C 287.5,338.5 287.5,346.5 287.5,354.5C 258.498,354.333 229.498,354.5 200.5,355C 200,355.5 199.5,356 199,356.5C 198.193,366.214 198.359,375.881 199.5,385.5C 228.997,386.167 258.331,386.833 287.5,387.5C 287.666,393.842 287.5,400.175 287,406.5C 286.292,407.381 285.458,408.047 284.5,408.5C 284.047,407.542 283.381,406.708 282.5,406C 241.501,405.5 200.501,405.333 159.5,405.5C 158.507,370.906 158.174,336.24 158.5,301.5C 197.168,301.667 235.835,301.5 274.5,301C 275.833,299.333 275.833,297.667 274.5,296C 235.835,295.5 197.168,295.333 158.5,295.5C 158.5,288.5 158.5,281.5 158.5,274.5C 166.565,275.601 170.898,272.101 171.5,264C 170.324,256.663 165.991,253.163 158.5,253.5C 158.5,246.167 158.5,238.833 158.5,231.5C 197.501,231.667 236.501,231.5 275.5,231C 278.167,229 278.167,227 275.5,225C 236.501,224.5 197.501,224.333 158.5,224.5C 158.5,218.833 158.5,213.167 158.5,207.5C 168.324,207.178 172.491,202.178 171,192.5C 168.244,187.704 164.077,185.371 158.5,185.5C 158.5,178.833 158.5,172.167 158.5,165.5C 197.501,165.667 236.501,165.5 275.5,165C 276.833,163.333 276.833,161.667 275.5,160C 234.168,159.5 192.835,159.333 151.5,159.5C 153.607,158.532 155.941,158.198 158.5,158.5C 158.5,151.833 158.5,145.167 158.5,138.5C 160.857,138.663 163.19,138.497 165.5,138C 171.664,133.701 172.997,128.201 169.5,121.5 Z"/></g>
<g><path style="opacity:1" fill="#f0c15f" d="M 158.5,124.5 C 164.704,124.314 166.037,126.814 162.5,132C 156.95,131.635 155.617,129.135 158.5,124.5 Z"/></g>
<g><path style="opacity:1" fill="#efc15f" d="M 183.5,124.5 C 190.004,124.138 191.671,126.638 188.5,132C 182.788,132.433 181.122,129.933 183.5,124.5 Z"/></g>
<g><path style="opacity:0.961" fill="#222d66" d="M 19.5,136.5 C 36.3247,134.829 45.9913,142.329 48.5,159C 47,172.5 39.5,180 26,181.5C 6.47635,177.791 -0.19032,166.458 6,147.5C 9.33583,142.269 13.8358,138.602 19.5,136.5 Z"/></g>
<g><path style="opacity:1" fill="#f9f9f9" d="M 40.5,158.5 C 34.719,155.678 29.0523,155.845 23.5,159C 19.9075,163.583 19.5741,168.416 22.5,173.5C 12.7471,170.336 8.91373,163.669 11,153.5C 18.4501,141.788 27.4501,140.455 38,149.5C 39.9076,152.206 40.741,155.206 40.5,158.5 Z"/></g>
<g><path style="opacity:0.933" fill="#1e2b65" d="M 61.5,154.5 C 68.5969,153.717 75.2636,154.884 81.5,158C 87.8725,170.579 94.3725,183.079 101,195.5C 101.903,196.701 103.069,197.535 104.5,198C 110.5,198.333 116.5,198.667 122.5,199C 123.576,200.726 123.743,202.559 123,204.5C 115.58,205.647 108.08,205.813 100.5,205C 99.1667,204.333 97.8333,203.667 96.5,203C 89.5394,190.246 82.706,177.413 76,164.5C 75.5,164 75,163.5 74.5,163C 69.8333,162.667 65.1667,162.333 60.5,162C 57.7086,159.016 58.0419,156.516 61.5,154.5 Z"/></g>
<g><path style="opacity:1" fill="#fdcb60" d="M 40.5,158.5 C 39.3931,169.268 33.3931,174.268 22.5,173.5C 19.5741,168.416 19.9075,163.583 23.5,159C 29.0523,155.845 34.719,155.678 40.5,158.5 Z"/></g>
<g><path style="opacity:1" fill="#1f2c66" d="M 151.5,159.5 C 192.835,159.333 234.168,159.5 275.5,160C 276.833,161.667 276.833,163.333 275.5,165C 236.501,165.5 197.501,165.667 158.5,165.5C 155.813,165.664 153.146,165.497 150.5,165C 149.02,162.765 149.353,160.932 151.5,159.5 Z"/></g>
<g><path style="opacity:0.98" fill="#212e67" d="M 415.5,173.5 C 449.962,171.15 476.796,184.15 496,212.5C 511.333,241.167 511.333,269.833 496,298.5C 476.816,327.007 449.982,339.84 415.5,337C 372.324,328.99 348.324,303.157 343.5,259.5C 329.496,259.667 315.496,259.5 301.5,259C 298.833,256.667 298.833,254.333 301.5,252C 315.496,251.5 329.496,251.333 343.5,251.5C 348.504,207.833 372.504,181.833 415.5,173.5 Z"/></g>
<g><path style="opacity:1" fill="#eff1f6" d="M 422.5,191.5 C 417.321,192.099 412.321,193.432 407.5,195.5C 410.037,190.783 413.204,186.449 417,182.5C 418.444,180.845 420.278,180.178 422.5,180.5C 422.5,184.167 422.5,187.833 422.5,191.5 Z"/></g>
<g><path style="opacity:1" fill="#f8f9fb" d="M 431.5,181.5 C 434.833,184.167 437.833,187.167 440.5,190.5C 437.038,191.482 433.371,191.815 429.5,191.5C 428.931,187.671 429.598,184.337 431.5,181.5 Z"/></g>
<g><path style="opacity:1" fill="#f5f5f6" d="M 481.5,213.5 C 480.797,211.284 479.464,209.451 477.5,208C 470.038,201.935 461.705,197.435 452.5,194.5C 449.302,190.645 445.969,186.812 442.5,183C 459.7,186.848 473.867,195.681 485,209.5C 485.124,211.741 483.958,213.074 481.5,213.5 Z"/></g>
<g><path style="opacity:1" fill="#22326d" d="M 250.5,184.5 C 252.467,184.261 254.301,184.594 256,185.5C 256.667,192.833 256.667,200.167 256,207.5C 254,208.833 252,208.833 250,207.5C 249.202,199.754 249.369,192.087 250.5,184.5 Z"/></g>
<g><path style="opacity:1" fill="#22326d" d="M 265.5,184.5 C 267.722,184.178 269.556,184.845 271,186.5C 271.667,193.5 271.667,200.5 271,207.5C 269,208.833 267,208.833 265,207.5C 264.202,199.754 264.369,192.087 265.5,184.5 Z"/></g>
<g><path style="opacity:1" fill="#f9f8fa" d="M 395.5,200.5 C 387.886,203.816 381.553,208.816 376.5,215.5C 372.542,214.681 368.875,213.181 365.5,211C 376.484,196.319 390.817,186.986 408.5,183C 403.548,188.417 399.215,194.251 395.5,200.5 Z"/></g>
<g><path style="opacity:1" fill="#233069" d="M 158.5,185.5 C 164.077,185.371 168.244,187.704 171,192.5C 172.491,202.178 168.324,207.178 158.5,207.5C 155.972,206.492 153.805,204.826 152,202.5C 148.613,194.62 150.779,188.954 158.5,185.5 Z"/></g>
<g><path style="opacity:1" fill="#22316b" d="M 181.5,186.5 C 187.476,185.224 192.309,186.89 196,191.5C 198.351,196.557 197.518,201.057 193.5,205C 185.706,209.351 179.872,207.518 176,199.5C 175.093,193.983 176.926,189.65 181.5,186.5 Z"/></g>
<g><path style="opacity:1" fill="#587ab7" d="M 431.5,181.5 C 429.598,184.337 428.931,187.671 429.5,191.5C 429.5,202.167 429.5,212.833 429.5,223.5C 428.504,209.343 428.171,195.01 428.5,180.5C 429.791,180.263 430.791,180.596 431.5,181.5 Z"/></g>
<g><path style="opacity:1" fill="#5bacfc" d="M 440.5,190.5 C 447.727,199.263 453.727,208.93 458.5,219.5C 449.018,222.129 439.352,223.463 429.5,223.5C 429.5,212.833 429.5,202.167 429.5,191.5C 433.371,191.815 437.038,191.482 440.5,190.5 Z"/></g>
<g><path style="opacity:1" fill="#5aaafa" d="M 422.5,191.5 C 422.5,202.167 422.5,212.833 422.5,223.5C 412.697,223.718 403.03,222.718 393.5,220.5C 396.377,211.07 401.044,202.737 407.5,195.5C 412.321,193.432 417.321,192.099 422.5,191.5 Z"/></g>
<g><path style="opacity:1" fill="#e7ba5f" d="M 158.5,192.5 C 164.623,192.417 166.29,194.917 163.5,200C 156.798,200.802 155.132,198.302 158.5,192.5 Z"/></g>
<g><path style="opacity:1" fill="#f3c35e" d="M 184.5,192.5 C 190.488,192.664 191.821,195.164 188.5,200C 182.403,200.147 181.07,197.647 184.5,192.5 Z"/></g>
<g><path style="opacity:1" fill="#f9c85f" d="M 452.5,194.5 C 461.705,197.435 470.038,201.935 477.5,208C 479.464,209.451 480.797,211.284 481.5,213.5C 476.768,215.132 471.935,216.465 467,217.5C 466.167,217.167 465.333,216.833 464.5,216.5C 460.983,208.792 456.983,201.459 452.5,194.5 Z"/></g>
<g><path style="opacity:1" fill="#f4c562" d="M 395.5,200.5 C 392.252,206.665 388.752,212.665 385,218.5C 382.101,217.59 379.267,216.59 376.5,215.5C 381.553,208.816 387.886,203.816 395.5,200.5 Z"/></g>
<g><path style="opacity:1" fill="#f9fafc" d="M 372.5,221.5 C 366.284,230.6 362.284,240.6 360.5,251.5C 357.5,251.5 354.5,251.5 351.5,251.5C 351.5,249.5 351.5,247.5 351.5,245.5C 352.151,235.04 355.651,225.706 362,217.5C 365.49,218.94 368.99,220.273 372.5,221.5 Z"/></g>
<g><path style="opacity:1" fill="#5babfb" d="M 487.5,218.5 C 491.012,222.863 494.012,227.53 496.5,232.5C 499.322,238.744 500.656,245.411 500.5,252.5C 491.5,252.5 482.5,252.5 473.5,252.5C 472.53,243.018 471.03,233.684 469,224.5C 475.126,222.402 481.293,220.402 487.5,218.5 Z"/></g>
<g><path style="opacity:1" fill="#dbe3f0" d="M 496.5,232.5 C 494.012,227.53 491.012,222.863 487.5,218.5C 488.542,217.209 489.708,217.209 491,218.5C 493.684,222.863 495.518,227.53 496.5,232.5 Z"/></g>
<g><path style="opacity:1" fill="#5cacfb" d="M 372.5,221.5 C 376.306,222.435 379.972,223.769 383.5,225.5C 379.905,234.144 378.238,243.144 378.5,252.5C 372.5,252.5 366.5,252.5 360.5,252.5C 360.5,252.167 360.5,251.833 360.5,251.5C 362.284,240.6 366.284,230.6 372.5,221.5 Z"/></g>
<g><path style="opacity:1" fill="#23326d" d="M 158.5,224.5 C 197.501,224.333 236.501,224.5 275.5,225C 278.167,227 278.167,229 275.5,231C 236.501,231.5 197.501,231.667 158.5,231.5C 155.813,231.664 153.146,231.497 150.5,231C 149.065,228.733 149.398,226.733 151.5,225C 153.81,224.503 156.143,224.337 158.5,224.5 Z"/></g>
<g><path style="opacity:1" fill="#5bacfd" d="M 412.5,229.5 C 415.287,230.477 418.287,230.81 421.5,230.5C 421.5,237.5 421.5,244.5 421.5,251.5C 409.5,251.5 397.5,251.5 385.5,251.5C 385.5,249.5 385.5,247.5 385.5,245.5C 386.359,239.064 387.692,232.731 389.5,226.5C 397.121,227.826 404.787,228.826 412.5,229.5 Z"/></g>
<g><path style="opacity:1" fill="#5bacfc" d="M 466.5,251.5 C 454.167,251.5 441.833,251.5 429.5,251.5C 429.5,244.5 429.5,237.5 429.5,230.5C 439.085,229.616 448.751,228.283 458.5,226.5C 459.5,226.833 460.5,227.167 461.5,227.5C 464.67,235.187 466.337,243.187 466.5,251.5 Z"/></g>
<g><path style="opacity:0.968" fill="#222e67" d="M 23.5,233.5 C 38.3202,233.821 46.6536,241.321 48.5,256C 44.7513,275.541 33.418,282.208 14.5,276C 2.86745,267.399 0.367447,256.566 7,243.5C 11.4573,238.162 16.9573,234.829 23.5,233.5 Z"/></g>
<g><path style="opacity:1" fill="#fbfbfa" d="M 40.5,254.5 C 34.5771,251.24 29.2438,251.907 24.5,256.5C 21.8937,261.467 21.8937,266.467 24.5,271.5C 11.8206,267.807 7.98728,259.807 13,247.5C 21.3333,239.5 29.6667,239.5 38,247.5C 39.9028,249.441 40.7361,251.774 40.5,254.5 Z"/></g>
<g><path style="opacity:1" fill="#888fae" d="M 351.5,245.5 C 351.5,247.5 351.5,249.5 351.5,251.5C 354.5,251.5 357.5,251.5 360.5,251.5C 360.5,251.833 360.5,252.167 360.5,252.5C 357.167,252.5 353.833,252.5 350.5,252.5C 350.198,249.941 350.532,247.607 351.5,245.5 Z"/></g>
<g><path style="opacity:1" fill="#4681ca" d="M 412.5,229.5 C 415.833,229.5 419.167,229.5 422.5,229.5C 422.5,237.167 422.5,244.833 422.5,252.5C 409.833,252.5 397.167,252.5 384.5,252.5C 384.198,249.941 384.532,247.607 385.5,245.5C 385.5,247.5 385.5,249.5 385.5,251.5C 397.5,251.5 409.5,251.5 421.5,251.5C 421.5,244.5 421.5,237.5 421.5,230.5C 418.287,230.81 415.287,230.477 412.5,229.5 Z"/></g>
<g><path style="opacity:1" fill="#447dc5" d="M 429.5,230.5 C 429.5,237.5 429.5,244.5 429.5,251.5C 441.833,251.5 454.167,251.5 466.5,251.5C 454.011,252.495 441.344,252.829 428.5,252.5C 428.175,244.981 428.508,237.648 429.5,230.5 Z"/></g>
<g><path style="opacity:1" fill="#fcca60" d="M 40.5,254.5 C 40.645,265.354 35.3116,271.021 24.5,271.5C 21.8937,266.467 21.8937,261.467 24.5,256.5C 29.2438,251.907 34.5771,251.24 40.5,254.5 Z"/></g>
<g><path style="opacity:0.878" fill="#1f2b66" d="M 58.5,252.5 C 79.5026,252.333 100.503,252.5 121.5,253C 124.28,255.77 123.946,258.104 120.5,260C 100.167,260.667 79.8333,260.667 59.5,260C 56.3423,257.745 56.009,255.245 58.5,252.5 Z"/></g>
<g><path style="opacity:1" fill="#21326d" d="M 251.5,251.5 C 253.39,251.297 254.89,251.963 256,253.5C 256.667,260.5 256.667,267.5 256,274.5C 253.916,277.033 251.916,277.033 250,274.5C 249.333,267.5 249.333,260.5 250,253.5C 250.717,252.956 251.217,252.289 251.5,251.5 Z"/></g>
<g><path style="opacity:1" fill="#22336e" d="M 266.5,251.5 C 268.39,251.297 269.89,251.963 271,253.5C 271.667,260.5 271.667,267.5 271,274.5C 269.267,276.602 267.267,276.935 265,275.5C 264.333,268.167 264.333,260.833 265,253.5C 265.717,252.956 266.217,252.289 266.5,251.5 Z"/></g>
<g><path style="opacity:1" fill="#253068" d="M 158.5,253.5 C 165.991,253.163 170.324,256.663 171.5,264C 170.898,272.101 166.565,275.601 158.5,274.5C 155.805,274.067 153.638,272.734 152,270.5C 148.603,262.638 150.769,256.971 158.5,253.5 Z"/></g>
<g><path style="opacity:1" fill="#23306a" d="M 182.5,253.5 C 195.051,253.314 199.218,258.981 195,270.5C 188.632,276.124 182.632,275.791 177,269.5C 174.571,262.693 176.405,257.359 182.5,253.5 Z"/></g>
<g><path style="opacity:1" fill="#f8f9fb" d="M 366.5,294.5 C 365.249,296.22 363.749,296.553 362,295.5C 356.029,285.605 352.529,274.939 351.5,263.5C 351.5,262.167 351.5,260.833 351.5,259.5C 354.167,259.5 356.833,259.5 359.5,259.5C 359.404,271.688 361.738,283.355 366.5,294.5 Z"/></g>
<g><path style="opacity:1" fill="#5dabfa" d="M 366.5,294.5 C 361.738,283.355 359.404,271.688 359.5,259.5C 356.833,259.5 354.167,259.5 351.5,259.5C 351.5,260.833 351.5,262.167 351.5,263.5C 350.549,262.081 350.216,260.415 350.5,258.5C 359.833,258.5 369.167,258.5 378.5,258.5C 378.047,268.887 379.714,278.887 383.5,288.5C 378.005,290.888 372.339,292.888 366.5,294.5 Z"/></g>
<g><path style="opacity:1" fill="#5badfd" d="M 384.5,259.5 C 396.833,259.5 409.167,259.5 421.5,259.5C 421.5,267.5 421.5,275.5 421.5,283.5C 418.615,283.194 415.948,283.527 413.5,284.5C 405.445,285.105 397.445,286.105 389.5,287.5C 386.558,278.398 384.891,269.065 384.5,259.5 Z"/></g>
<g><path style="opacity:1" fill="#4986d0" d="M 384.5,259.5 C 396.989,258.505 409.656,258.171 422.5,258.5C 422.5,267.167 422.5,275.833 422.5,284.5C 419.5,284.5 416.5,284.5 413.5,284.5C 415.948,283.527 418.615,283.194 421.5,283.5C 421.5,275.5 421.5,267.5 421.5,259.5C 409.167,259.5 396.833,259.5 384.5,259.5 Z"/></g>
<g><path style="opacity:1" fill="#4176bd" d="M 466.5,259.5 C 454.167,259.5 441.833,259.5 429.5,259.5C 429.5,267.5 429.5,275.5 429.5,283.5C 431.415,283.216 433.081,283.549 434.5,284.5C 432.5,284.5 430.5,284.5 428.5,284.5C 428.5,275.833 428.5,267.167 428.5,258.5C 441.344,258.171 454.011,258.505 466.5,259.5 Z"/></g>
<g><path style="opacity:1" fill="#5badfe" d="M 466.5,259.5 C 466.459,269.115 464.459,278.282 460.5,287C 451.894,286.009 443.227,285.176 434.5,284.5C 433.081,283.549 431.415,283.216 429.5,283.5C 429.5,275.5 429.5,267.5 429.5,259.5C 441.833,259.5 454.167,259.5 466.5,259.5 Z"/></g>
<g><path style="opacity:1" fill="#5aaafb" d="M 473.5,258.5 C 482.5,258.5 491.5,258.5 500.5,258.5C 500.095,269.025 497.595,279.025 493,288.5C 491.401,291.378 489.567,294.044 487.5,296.5C 481.086,293.863 474.586,291.529 468,289.5C 470.927,279.438 472.76,269.104 473.5,258.5 Z"/></g>
<g><path style="opacity:1" fill="#eebf5f" d="M 158.5,260.5 C 164.704,260.314 166.037,262.814 162.5,268C 156.812,267.79 155.479,265.29 158.5,260.5 Z"/></g>
<g><path style="opacity:1" fill="#f2c25e" d="M 184.5,260.5 C 190.488,260.664 191.821,263.164 188.5,268C 182.403,268.147 181.07,265.647 184.5,260.5 Z"/></g>
<g><path style="opacity:1" fill="#5aaafa" d="M 409.5,290.5 C 413.833,290.5 418.167,290.5 422.5,290.5C 422.5,303.833 422.5,317.167 422.5,330.5C 421.448,330.649 420.448,330.483 419.5,330C 407.975,319.751 399.308,307.584 393.5,293.5C 399.037,292.913 404.37,291.913 409.5,290.5 Z"/></g>
<g><path style="opacity:1" fill="#59a8f8" d="M 428.5,290.5 C 438.36,290.568 448.026,291.901 457.5,294.5C 450.748,308.576 441.415,320.576 429.5,330.5C 428.501,317.183 428.167,303.85 428.5,290.5 Z"/></g>
<g><path style="opacity:1" fill="#1f2c66" d="M 158.5,295.5 C 197.168,295.333 235.835,295.5 274.5,296C 275.833,297.667 275.833,299.333 274.5,301C 235.835,301.5 197.168,301.667 158.5,301.5C 155.482,301.665 152.482,301.498 149.5,301C 148.167,299.333 148.167,297.667 149.5,296C 152.482,295.502 155.482,295.335 158.5,295.5 Z"/></g>
<g><path style="opacity:1" fill="#f8c75f" d="M 406.5,326.5 C 406.5,327.167 406.167,327.5 405.5,327.5C 397.677,325.682 390.677,322.348 384.5,317.5C 379.078,312.415 374.411,306.749 370.5,300.5C 375.427,298.683 380.427,297.016 385.5,295.5C 391.273,306.727 398.273,317.06 406.5,326.5 Z"/></g>
<g><path style="opacity:1" fill="#f9c75e" d="M 464.5,295.5 C 470.164,297.221 475.831,299.054 481.5,301C 482.956,301.423 483.456,302.256 483,303.5C 472.331,316.415 458.831,324.582 442.5,328C 451.62,318.379 458.953,307.546 464.5,295.5 Z"/></g>
<g><path style="opacity:1" fill="#eeedec" d="M 370.5,300.5 C 374.411,306.749 379.078,312.415 384.5,317.5C 377.957,313.632 372.291,308.632 367.5,302.5C 368.357,301.575 369.357,300.908 370.5,300.5 Z"/></g>
<g><path style="opacity:0.926" fill="#1e2b65" d="M 100.5,305.5 C 107.841,305.334 115.174,305.5 122.5,306C 123.576,307.726 123.743,309.559 123,311.5C 116.141,312.058 109.308,312.891 102.5,314C 95.5976,325.916 89.0976,338.082 83,350.5C 79.212,355.212 74.212,357.212 68,356.5C 65.0403,356.557 62.207,356.057 59.5,355C 58.0652,352.733 58.3985,350.733 60.5,349C 65.1667,348.667 69.8333,348.333 74.5,348C 81.9698,335.563 88.8032,322.73 95,309.5C 96.8121,308.023 98.6455,306.69 100.5,305.5 Z"/></g>
<g><path style="opacity:1" fill="#232f68" d="M 259.5,316.5 C 270.507,315.673 275.007,320.673 273,331.5C 267.07,339.013 260.736,339.346 254,332.5C 251.024,325.462 252.857,320.129 259.5,316.5 Z"/></g>
<g><path style="opacity:1" fill="#eebf5f" d="M 261.5,322.5 C 267.02,323.044 268.354,325.544 265.5,330C 259.202,330.495 257.868,327.995 261.5,322.5 Z"/></g>
<g><path style="opacity:1" fill="#877a69" d="M 406.5,326.5 C 407.289,326.783 407.956,327.283 408.5,328C 407.251,328.74 406.251,328.573 405.5,327.5C 406.167,327.5 406.5,327.167 406.5,326.5 Z"/></g>
<g><path style="opacity:0.956" fill="#252d66" d="M 8.5,328.5 C 20.8378,328.333 33.1712,328.5 45.5,329C 47.286,329.785 48.786,330.951 50,332.5C 51.5814,344.442 51.9148,356.442 51,368.5C 50.573,372.527 48.4064,375.027 44.5,376C 33.1667,376.667 21.8333,376.667 10.5,376C 7.80402,375.31 5.63735,373.81 4,371.5C 3.33333,358.833 3.33333,346.167 4,333.5C 5.02496,331.313 6.52496,329.646 8.5,328.5 Z"/></g>
<g><path style="opacity:0.975" fill="#212e68" d="M 287.5,387.5 C 258.331,386.833 228.997,386.167 199.5,385.5C 198.359,375.881 198.193,366.214 199,356.5C 199.5,356 200,355.5 200.5,355C 229.498,354.5 258.498,354.333 287.5,354.5C 297.5,354.5 307.5,354.5 317.5,354.5C 317.334,347.492 317.5,340.492 318,333.5C 319.726,332.424 321.559,332.257 323.5,333C 337.651,344.574 351.985,355.908 366.5,367C 368.673,368.865 369.007,371.031 367.5,373.5C 352.689,385.144 338.022,396.977 323.5,409C 321.299,409.825 319.466,409.325 318,407.5C 317.5,400.842 317.334,394.175 317.5,387.5C 307.5,387.5 297.5,387.5 287.5,387.5 Z"/></g>
<g><path style="opacity:1" fill="#fafafb" d="M 43.5,350.5 C 37.1579,350.334 30.8246,350.5 24.5,351C 23.5251,356.741 23.1918,362.575 23.5,368.5C 19.4336,369.822 15.2669,369.822 11,368.5C 10.3333,357.833 10.3333,347.167 11,336.5C 21.7517,335.513 32.585,335.18 43.5,335.5C 43.5,340.5 43.5,345.5 43.5,350.5 Z"/></g>
<g><path style="opacity:1" fill="#2d376e" d="M 18.5,342.5 C 24.1764,342.334 29.8431,342.501 35.5,343C 38.1667,345 38.1667,347 35.5,349C 29.8333,349.667 24.1667,349.667 18.5,349C 17.232,346.837 17.232,344.67 18.5,342.5 Z"/></g>
<g><path style="opacity:1" fill="#f9f9fa" d="M 350.5,377.5 C 341.815,371.142 333.148,364.809 324.5,358.5C 324.334,353.489 324.501,348.489 325,343.5C 336.075,352.62 347.242,361.62 358.5,370.5C 356.431,373.573 353.764,375.906 350.5,377.5 Z"/></g>
<g><path style="opacity:1" fill="#ff6975" d="M 43.5,350.5 C 43.5,356.5 43.5,362.5 43.5,368.5C 36.8333,368.5 30.1667,368.5 23.5,368.5C 23.1918,362.575 23.5251,356.741 24.5,351C 30.8246,350.5 37.1579,350.334 43.5,350.5 Z"/></g>
<g><path style="opacity:1" fill="#f6c65f" d="M 324.5,358.5 C 333.148,364.809 341.815,371.142 350.5,377.5C 341.978,384.362 333.478,391.362 325,398.5C 324.81,392.584 324.31,386.751 323.5,381C 284.168,380.5 244.835,380.333 205.5,380.5C 205.5,377.5 205.5,374.5 205.5,371.5C 244.167,371.5 282.833,371.5 321.5,371.5C 321.5,368.5 321.5,365.5 321.5,362.5C 321.5,362.167 321.5,361.833 321.5,361.5C 323.5,361.5 324.5,360.5 324.5,358.5 Z"/></g>
<g><path style="opacity:1" fill="#fbfcfc" d="M 321.5,361.5 C 321.5,361.833 321.5,362.167 321.5,362.5C 320.527,364.948 320.194,367.615 320.5,370.5C 282.167,370.5 243.833,370.5 205.5,370.5C 205.5,367.5 205.5,364.5 205.5,361.5C 244.167,361.5 282.833,361.5 321.5,361.5 Z"/></g>
<g><path style="opacity:1" fill="#fff4de" d="M 321.5,362.5 C 321.5,365.5 321.5,368.5 321.5,371.5C 282.833,371.5 244.167,371.5 205.5,371.5C 205.5,371.167 205.5,370.833 205.5,370.5C 243.833,370.5 282.167,370.5 320.5,370.5C 320.194,367.615 320.527,364.948 321.5,362.5 Z"/></g>
</svg>
