<?xml version="1.0" encoding="UTF-8"?>
<!DOCTYPE svg PUBLIC "-//W3C//DTD SVG 1.1//EN" "http://www.w3.org/Graphics/SVG/1.1/DTD/svg11.dtd">
<svg xmlns="http://www.w3.org/2000/svg" version="1.1" width="230px" height="219px" style="shape-rendering:geometricPrecision; text-rendering:geometricPrecision; image-rendering:optimizeQuality; fill-rule:evenodd; clip-rule:evenodd" xmlns:xlink="http://www.w3.org/1999/xlink">
<g><path style="opacity:1" fill="#fdfdfd" d="M -0.5,-0.5 C 76.1667,-0.5 152.833,-0.5 229.5,-0.5C 229.5,72.5 229.5,145.5 229.5,218.5C 152.833,218.5 76.1667,218.5 -0.5,218.5C -0.5,145.5 -0.5,72.5 -0.5,-0.5 Z"/></g>
<g><path style="opacity:1" fill="#030303" d="M 76.5,21.5 C 82.0487,21.0871 87.382,21.9204 92.5,24C 100.015,31.3477 107.348,38.8477 114.5,46.5C 120.989,39.8431 127.322,33.0098 133.5,26C 142.73,19.8083 151.73,20.1416 160.5,27C 145.322,43.6766 129.989,60.1766 114.5,76.5C 99.0111,60.1766 83.6778,43.6766 68.5,27C 71.0703,24.9131 73.737,23.0798 76.5,21.5 Z"/></g>
<g><path style="opacity:1" fill="#e57004" d="M 55.5,36.5 C 62.1467,35.5921 68.1467,37.0921 73.5,41C 86.0659,54.1432 98.3992,67.4766 110.5,81C 97.8112,95.353 84.8112,109.353 71.5,123C 62.1551,127.13 53.4884,126.13 45.5,120C 57.1667,107 68.8333,94 80.5,81C 68.4652,68.6336 56.7986,55.9669 45.5,43C 48.4207,40.0495 51.7541,37.8828 55.5,36.5 Z"/></g>
<g><path style="opacity:1" fill="#e57104" d="M 163.5,36.5 C 171.293,35.3757 177.959,37.5423 183.5,43C 172.201,55.9669 160.535,68.6336 148.5,81C 160.167,94 171.833,107 183.5,120C 174.103,128.216 164.437,128.55 154.5,121C 142.5,107.667 130.5,94.3333 118.5,81C 130.601,67.4766 142.934,54.1432 155.5,41C 158.099,39.205 160.766,37.705 163.5,36.5 Z"/></g>
<g><path style="opacity:1" fill="#040404" d="M 113.5,85.5 C 129.722,101.219 145.056,117.886 159.5,135.5C 153.021,141.736 145.687,142.902 137.5,139C 129.679,131.346 122.013,123.512 114.5,115.5C 106.96,123.539 99.2932,131.373 91.5,139C 83.7885,142.807 76.6218,141.974 70,136.5C 70.044,134.721 70.7107,133.055 72,131.5C 86.0404,116.296 99.8738,100.963 113.5,85.5 Z"/></g>
<g><path style="opacity:1" fill="#0f0f0f" d="M 6.5,167.5 C 13.9472,167.071 21.2806,167.571 28.5,169C 31.8652,173.819 32.3652,178.986 30,184.5C 29.0975,185.701 27.9308,186.535 26.5,187C 21.4671,187.171 16.4671,187.671 11.5,188.5C 10.8333,191.167 9.16667,192.833 6.5,193.5C 5.19802,184.774 5.19802,176.108 6.5,167.5 Z"/></g>
<g><path style="opacity:1" fill="#0a0a0a" d="M 36.5,167.5 C 43.175,167.334 49.8417,167.5 56.5,168C 58.286,168.785 59.786,169.951 61,171.5C 62.6201,177.491 61.1201,182.491 56.5,186.5C 57.8333,188.5 59.1667,190.5 60.5,192.5C 58.1022,193.724 55.7689,193.558 53.5,192C 52.1667,190 50.8333,188 49.5,186C 46.854,185.503 44.1873,185.336 41.5,185.5C 41.8498,189.474 40.1831,192.14 36.5,193.5C 35.198,184.774 35.198,176.108 36.5,167.5 Z"/></g>
<g><path style="opacity:1" fill="#0d0d0d" d="M 69.5,167.5 C 88.6625,163.162 95.8291,170.496 91,189.5C 90.1667,190.5 89.3333,191.5 88.5,192.5C 81.8843,193.628 75.2177,193.795 68.5,193C 67.6667,192.167 66.8333,191.333 66,190.5C 65.3333,183.833 65.3333,177.167 66,170.5C 67.1451,169.364 68.3117,168.364 69.5,167.5 Z"/></g>
<g><path style="opacity:1" fill="#0a0a0a" d="M 97.5,167.5 C 99.6547,167.372 101.655,167.872 103.5,169C 104.976,171.643 106.976,173.81 109.5,175.5C 112.317,173.183 114.984,170.683 117.5,168C 119.235,167.349 120.902,167.515 122.5,168.5C 123.521,169.002 123.688,169.668 123,170.5C 120.354,173.98 117.521,177.314 114.5,180.5C 117.273,184.777 120.607,188.61 124.5,192C 122.305,193.373 119.971,193.706 117.5,193C 114.328,190.994 111.662,188.494 109.5,185.5C 107.35,188.151 105.017,190.651 102.5,193C 99.947,193.851 97.6137,193.518 95.5,192C 98.464,188.034 101.797,184.367 105.5,181C 102.703,177.201 99.5364,173.701 96,170.5C 95.7613,169.212 96.2613,168.212 97.5,167.5 Z"/></g>
<g><path style="opacity:1" fill="#050505" d="M 129.5,167.5 C 132.649,167.211 135.649,167.711 138.5,169C 140.883,172.265 142.883,175.765 144.5,179.5C 146.117,175.765 148.117,172.265 150.5,169C 153.366,167.543 156.366,167.21 159.5,168C 160.483,176.415 160.817,184.915 160.5,193.5C 157.708,193.548 155.875,192.215 155,189.5C 154.829,184.467 154.329,179.467 153.5,174.5C 150.738,180.36 147.738,186.026 144.5,191.5C 141.262,186.026 138.262,180.36 135.5,174.5C 134.671,179.467 134.171,184.467 134,189.5C 133.125,192.215 131.292,193.548 128.5,193.5C 128.197,184.749 128.53,176.082 129.5,167.5 Z"/></g>
<g><path style="opacity:1" fill="#0d0d0d" d="M 168.5,167.5 C 174.176,167.334 179.843,167.501 185.5,168C 186.766,168.309 187.933,168.809 189,169.5C 190.591,176.392 190.924,183.392 190,190.5C 189.167,191.333 188.333,192.167 187.5,193C 181.167,193.667 174.833,193.667 168.5,193C 167.584,192.626 166.75,192.126 166,191.5C 164.456,184.916 164.123,178.249 165,171.5C 166.376,170.295 167.542,168.962 168.5,167.5 Z"/></g>
<g><path style="opacity:1" fill="#0b0b0b" d="M 196.5,167.5 C 198.655,167.372 200.655,167.872 202.5,169C 204.683,171.35 207.016,173.517 209.5,175.5C 212.024,173.81 214.024,171.643 215.5,169C 217.754,167.349 220.088,167.182 222.5,168.5C 223.521,169.002 223.688,169.668 223,170.5C 219.483,173.717 216.316,177.217 213.5,181C 216.667,184.167 219.833,187.333 223,190.5C 223.667,191.167 223.667,191.833 223,192.5C 220.936,193.591 218.769,193.758 216.5,193C 214.284,190.447 211.784,188.28 209,186.5C 207.188,188.312 205.355,190.145 203.5,192C 201.305,193.373 198.971,193.706 196.5,193C 195.549,192.282 195.383,191.449 196,190.5C 199.396,187.607 202.229,184.274 204.5,180.5C 201.479,177.314 198.646,173.98 196,170.5C 195.53,169.423 195.697,168.423 196.5,167.5 Z"/></g>
<g><path style="opacity:1" fill="#fefefe" d="M 11.5,174.5 C 15.8333,174.5 20.1667,174.5 24.5,174.5C 24.5,176.833 24.5,179.167 24.5,181.5C 20.1667,181.5 15.8333,181.5 11.5,181.5C 11.5,179.167 11.5,176.833 11.5,174.5 Z"/></g>
<g><path style="opacity:1" fill="#ececec" d="M 41.5,174.5 C 45.8333,174.5 50.1667,174.5 54.5,174.5C 54.7394,176.467 54.4061,178.301 53.5,180C 49.5138,180.499 45.5138,180.666 41.5,180.5C 41.5,178.5 41.5,176.5 41.5,174.5 Z"/></g>
<g><path style="opacity:1" fill="#fbfbfb" d="M 71.5,174.5 C 75.8333,174.5 80.1667,174.5 84.5,174.5C 84.5,178.833 84.5,183.167 84.5,187.5C 80.4862,187.666 76.4862,187.499 72.5,187C 71.5363,182.934 71.203,178.767 71.5,174.5 Z"/></g>
<g><path style="opacity:1" fill="#fafafa" d="M 171.5,174.5 C 175.833,174.5 180.167,174.5 184.5,174.5C 184.666,178.514 184.499,182.514 184,186.5C 179.934,187.464 175.767,187.797 171.5,187.5C 171.5,183.167 171.5,178.833 171.5,174.5 Z"/></g>
</svg>
