<?xml version="1.0" standalone="no"?>
<!DOCTYPE svg PUBLIC "-//W3C//DTD SVG 20010904//EN"
 "http://www.w3.org/TR/2001/REC-SVG-20010904/DTD/svg10.dtd">
<svg version="1.0" xmlns="http://www.w3.org/2000/svg"
 width="512.000000pt" height="512.000000pt" viewBox="0 0 512.000000 512.000000"
 preserveAspectRatio="xMidYMid meet">

<g transform="translate(0.000000,512.000000) scale(0.100000,-0.100000)"
fill="#000000" stroke="none">
<path d="M3830 4691 c-25 -10 -214 -102 -420 -203 -239 -118 -385 -196 -402
-214 -58 -64 -71 -106 -76 -250 l-5 -134 -642 0 c-610 0 -644 -1 -666 -18 -27
-23 -30 -75 -5 -100 15 -16 70 -17 666 -20 l650 -2 0 -205 0 -205 -155 0
c-152 0 -156 -1 -180 -25 -30 -30 -31 -54 -4 -89 l20 -26 165 0 164 0 11 -45
c12 -49 101 -202 174 -302 l46 -63 -1386 0 -1387 0 -29 29 -29 29 0 422 0 422
31 29 31 29 170 0 c205 0 228 8 228 77 0 57 -21 63 -219 63 -107 0 -189 -5
-215 -12 -55 -16 -138 -99 -154 -154 -15 -52 -17 -851 -2 -904 5 -20 21 -51
34 -69 l24 -33 -31 -50 -32 -51 -3 -436 c-2 -387 -1 -441 14 -480 21 -55 66
-106 118 -134 l41 -22 788 -3 787 -2 0 -173 0 -172 -43 -42 -43 -42 -374 -3
c-368 -3 -376 -3 -417 -26 -24 -12 -55 -41 -70 -64 -27 -40 -28 -46 -28 -173
0 -127 1 -133 28 -173 15 -23 46 -52 70 -64 41 -23 49 -23 416 -26 l375 -3 33
-34 c79 -82 171 -124 283 -132 131 -9 242 31 337 123 l47 44 340 0 c219 0 355
4 381 11 52 15 119 82 134 134 14 51 14 188 0 238 -12 44 -59 101 -103 125
-27 15 -75 17 -392 20 l-362 3 -46 44 -46 45 0 170 0 170 788 2 c750 3 789 4
825 22 51 25 96 71 118 121 17 36 19 72 19 381 l0 341 28 12 c72 33 207 136
303 231 112 112 199 223 281 359 80 132 88 169 88 401 l0 199 -26 20 c-35 27
-59 26 -89 -4 -25 -24 -25 -26 -25 -213 0 -213 -3 -228 -70 -337 -152 -249
-377 -467 -569 -552 -82 -36 -199 -64 -240 -57 -255 42 -519 247 -728 566
-106 161 -98 112 -101 613 -3 462 -1 494 41 533 36 34 780 392 815 392 19 0
129 -48 289 -126 142 -69 318 -155 390 -190 89 -43 139 -73 150 -91 14 -20 19
-55 23 -140 4 -87 9 -116 22 -129 24 -25 79 -20 101 8 17 20 18 37 15 143 -4
139 -19 179 -90 240 -28 24 -183 106 -433 228 -368 179 -394 191 -455 194 -47
2 -77 -2 -110 -16z m-464 -2102 c169 -148 344 -235 530 -264 23 -3 72 0 115 9
40 9 75 16 77 16 8 0 0 -561 -9 -593 -7 -26 -21 -44 -42 -57 -31 -20 -67 -20
-1825 -20 -1656 0 -1796 1 -1822 17 -16 9 -33 27 -39 40 -7 16 -11 160 -11
431 0 360 2 410 16 431 37 52 -29 50 1510 51 l1430 0 70 -61z m-1036 -1181 l0
-133 -120 0 -120 0 0 133 0 132 120 0 120 0 0 -132z m18 -305 c100 -50 158
-153 155 -273 -3 -106 -64 -200 -161 -247 -76 -37 -183 -40 -253 -5 -56 27
-113 83 -142 137 -32 58 -31 203 0 260 85 152 251 205 401 128z"/>
<path d="M850 2463 c-168 -59 -255 -239 -197 -410 58 -169 266 -253 432 -175
116 55 179 155 179 283 1 68 -3 84 -34 145 -72 141 -235 208 -380 157z m201
-157 c45 -30 71 -84 71 -146 0 -92 -63 -160 -156 -168 -104 -8 -177 54 -184
157 -5 65 10 104 56 146 54 50 146 55 213 11z"/>
<path d="M1673 2462 c-179 -64 -264 -271 -180 -438 34 -67 114 -138 179 -160
119 -39 270 0 343 91 54 67 68 104 73 191 4 72 1 88 -23 141 -67 151 -241 229
-392 175z"/>
<path d="M2590 2208 c-25 -27 -26 -59 -1 -89 19 -24 23 -24 223 -27 195 -3
205 -2 231 18 33 26 36 71 7 100 -19 19 -33 20 -230 20 -202 0 -210 -1 -230
-22z"/>
<path d="M3310 2210 c-29 -29 -26 -74 7 -100 26 -20 36 -21 231 -18 200 3 204
3 223 27 25 30 24 66 -1 91 -19 19 -33 20 -230 20 -197 0 -211 -1 -230 -20z"/>
<path d="M3875 4349 c-16 -5 -154 -71 -305 -147 -230 -114 -280 -143 -305
-175 l-30 -39 -3 -355 -3 -355 29 -62 c73 -154 261 -363 400 -445 82 -49 204
-91 263 -91 104 0 255 65 377 162 106 85 250 267 305 385 21 46 22 62 25 382
l3 334 -26 53 c-14 29 -38 62 -53 73 -57 40 -569 281 -607 285 -22 3 -53 1
-70 -5z m315 -254 c140 -68 265 -133 278 -144 22 -19 22 -21 22 -326 0 -344 3
-327 -80 -450 -111 -165 -263 -292 -400 -336 -63 -21 -76 -22 -126 -11 -165
34 -349 190 -476 404 l-43 73 -3 300 c-2 228 1 306 10 325 10 19 80 58 278
157 146 72 270 132 275 132 6 0 125 -55 265 -124z"/>
<path d="M4198 3789 c-10 -5 -86 -90 -170 -187 -83 -97 -169 -196 -189 -219
l-38 -41 -58 76 c-32 42 -66 84 -75 94 -24 24 -80 23 -101 0 -29 -32 -20 -67
35 -139 157 -206 174 -222 218 -208 18 6 417 459 463 525 23 34 21 57 -8 85
-26 27 -49 31 -77 14z"/>
<path d="M1050 3870 c-27 -27 -25 -66 5 -95 23 -24 30 -25 143 -25 100 0 123
3 140 18 32 26 37 63 12 95 -21 27 -22 27 -151 27 -116 0 -131 -2 -149 -20z"/>
<path d="M871 3575 c-70 -20 -111 -46 -160 -101 -74 -85 -97 -226 -53 -327 29
-65 103 -140 165 -168 115 -50 261 -22 351 67 93 93 119 241 63 356 -67 138
-225 212 -366 173z m157 -149 c60 -31 94 -88 94 -156 0 -148 -169 -228 -282
-134 -43 37 -60 75 -60 137 0 62 25 108 79 144 40 27 126 31 169 9z"/>
<path d="M1713 3580 c-292 -61 -344 -455 -79 -590 62 -31 77 -35 145 -34 123
0 222 60 279 168 24 45 27 62 27 146 0 87 -3 100 -29 148 -17 29 -46 67 -65
84 -74 65 -188 97 -278 78z m141 -154 c106 -44 129 -208 41 -285 -157 -137
-377 55 -262 228 14 21 40 45 58 54 42 20 118 22 163 3z"/>
</g>
</svg>
