<?xml version="1.0" encoding="UTF-8"?>
<!DOCTYPE svg PUBLIC "-//W3C//DTD SVG 1.1//EN" "http://www.w3.org/Graphics/SVG/1.1/DTD/svg11.dtd">
<svg xmlns="http://www.w3.org/2000/svg" version="1.1" width="512px" height="512px" style="shape-rendering:geometricPrecision; text-rendering:geometricPrecision; image-rendering:optimizeQuality; fill-rule:evenodd; clip-rule:evenodd" xmlns:xlink="http://www.w3.org/1999/xlink">
<g><path style="opacity:0.988" fill="#30e2f2" d="M 34.5,-0.5 C 41.1667,-0.5 47.8333,-0.5 54.5,-0.5C 84.0341,10.2312 94.8674,30.8978 87,61.5C 81.5618,73.7729 72.7285,82.4395 60.5,87.5C 50.1317,89.9935 39.7983,89.9935 29.5,87.5C 13.87,81.5401 3.86999,70.5401 -0.5,54.5C -0.5,47.8333 -0.5,41.1667 -0.5,34.5C 4.82461,16.5087 16.4913,4.84205 34.5,-0.5 Z"/></g>
<g><path style="opacity:0.998" fill="#30e1f1" d="M 180.5,-0.5 C 205.5,-0.5 230.5,-0.5 255.5,-0.5C 255.5,47.1667 255.5,94.8333 255.5,142.5C 255.5,142.833 255.5,143.167 255.5,143.5C 250.52,148.145 245.52,152.812 240.5,157.5C 234.167,151.5 227.833,145.5 221.5,139.5C 214.167,146.167 207.167,153.167 200.5,160.5C 213.5,174.167 226.833,187.5 240.5,200.5C 245.52,195.812 250.52,191.145 255.5,186.5C 255.5,234.833 255.5,283.167 255.5,331.5C 208.595,308.099 171.762,273.766 145,228.5C 136.556,212.997 130.389,196.663 126.5,179.5C 124.213,169.446 122.213,159.446 120.5,149.5C 120.5,109.5 120.5,69.5 120.5,29.5C 137.215,29.925 153.882,29.425 170.5,28C 174.667,26.5 177.5,23.6667 179,19.5C 180.274,12.8972 180.774,6.23049 180.5,-0.5 Z"/></g>
<g><path style="opacity:1" fill="#2eb8e7" d="M 255.5,-0.5 C 280.833,-0.5 306.167,-0.5 331.5,-0.5C 331.334,6.17499 331.5,12.8417 332,19.5C 334.813,24.9958 339.313,28.1625 345.5,29C 360.83,29.4999 376.163,29.6666 391.5,29.5C 391.731,69.5081 391.397,109.508 390.5,149.5C 388.855,159.372 387.188,169.372 385.5,179.5C 376.449,212.943 360.616,242.61 338,268.5C 319.89,288.292 299.724,305.458 277.5,320C 270.586,324.624 263.252,328.457 255.5,331.5C 255.5,283.167 255.5,234.833 255.5,186.5C 255.5,186.167 255.5,185.833 255.5,185.5C 274.339,167.494 292.673,148.994 310.5,130C 304.333,122.5 297.5,115.667 290,109.5C 278.34,120.327 266.84,131.327 255.5,142.5C 255.5,94.8333 255.5,47.1667 255.5,-0.5 Z"/></g>
<g><path style="opacity:0.983" fill="#e5f6fe" d="M 29.5,87.5 C 39.7983,89.9935 50.1317,89.9935 60.5,87.5C 56.0431,109.981 62.7097,128.147 80.5,142C 87.8627,146.507 95.8627,148.841 104.5,149C 109.823,149.499 115.156,149.666 120.5,149.5C 122.213,159.446 124.213,169.446 126.5,179.5C 113.637,178.826 100.97,179.993 88.5,183C 75.5148,188.651 66.6814,198.151 62,211.5C 60.6048,221.434 60.1048,231.434 60.5,241.5C 50.1804,238.872 39.8471,238.872 29.5,241.5C 25.2156,210.328 34.8822,184.661 58.5,164.5C 34.8822,144.339 25.2156,118.672 29.5,87.5 Z"/></g>
<g><path style="opacity:0.987" fill="#bde2ed" d="M 511.5,163.5 C 511.5,164.167 511.5,164.833 511.5,165.5C 487.854,188.812 464.188,212.146 440.5,235.5C 432.971,228.805 425.971,221.638 419.5,214C 430.124,202.375 441.124,191.041 452.5,180C 430.169,179.5 407.836,179.333 385.5,179.5C 387.188,169.372 388.855,159.372 390.5,149.5C 411.169,149.667 431.836,149.5 452.5,149C 441.124,137.959 430.124,126.625 419.5,115C 425.971,107.362 432.971,100.195 440.5,93.5C 464.188,116.854 487.854,140.188 511.5,163.5 Z"/></g>
<g><path style="opacity:1" fill="#004181" d="M 255.5,185.5 C 255.5,171.5 255.5,157.5 255.5,143.5C 255.5,143.167 255.5,142.833 255.5,142.5C 266.84,131.327 278.34,120.327 290,109.5C 297.5,115.667 304.333,122.5 310.5,130C 292.673,148.994 274.339,167.494 255.5,185.5 Z"/></g>
<g><path style="opacity:1" fill="#366bb3" d="M 255.5,143.5 C 255.5,157.5 255.5,171.5 255.5,185.5C 255.5,185.833 255.5,186.167 255.5,186.5C 250.52,191.145 245.52,195.812 240.5,200.5C 226.833,187.5 213.5,174.167 200.5,160.5C 207.167,153.167 214.167,146.167 221.5,139.5C 227.833,145.5 234.167,151.5 240.5,157.5C 245.52,152.812 250.52,148.145 255.5,143.5 Z"/></g>
<g><path style="opacity:0.988" fill="#30e2f2" d="M 60.5,241.5 C 85.969,254.108 94.8023,274.108 87,301.5C 76.3191,323.426 58.8191,332.593 34.5,329C 16.3096,323.975 4.64294,312.475 -0.5,294.5C -0.5,287.833 -0.5,281.167 -0.5,274.5C 3.86999,258.46 13.87,247.46 29.5,241.5C 39.8471,238.872 50.1804,238.872 60.5,241.5 Z"/></g>
<g><path style="opacity:0.98" fill="#3669b3" d="M 115.5,511.5 C 108.833,511.5 102.167,511.5 95.5,511.5C 81.9906,507.218 70.9906,499.218 62.5,487.5C 69.1952,479.971 76.3619,472.971 84,466.5C 88.8219,470.653 93.6552,474.82 98.5,479C 106.227,481.729 112.727,479.896 118,473.5C 120.791,466.54 119.624,460.374 114.5,455C 105.196,452.666 95.8623,450.332 86.5,448C 65.9036,436.973 57.4036,419.806 61,396.5C 70.4808,368.169 89.9808,357.002 119.5,363C 131.312,367.635 140.979,375.135 148.5,385.5C 141.805,393.029 134.638,400.029 127,406.5C 122.545,403.048 118.378,399.214 114.5,395C 104.715,390.706 97.2148,393.206 92,402.5C 90.1675,410.667 93.0008,416.501 100.5,420C 136.012,422.496 152.512,441.33 150,476.5C 144.984,494.682 133.484,506.348 115.5,511.5 Z"/></g>
<g><path style="opacity:0.968" fill="#3569b3" d="M 211.5,511.5 C 201.167,511.5 190.833,511.5 180.5,511.5C 180.5,461.5 180.5,411.5 180.5,361.5C 190.833,361.5 201.167,361.5 211.5,361.5C 211.5,411.5 211.5,461.5 211.5,511.5 Z"/></g>
<g><path style="opacity:0.998" fill="#366ab3" d="M 255.5,361.5 C 255.5,411.5 255.5,461.5 255.5,511.5C 250.5,511.5 245.5,511.5 240.5,511.5C 240.5,461.5 240.5,411.5 240.5,361.5C 245.5,361.5 250.5,361.5 255.5,361.5 Z"/></g>
<g><path style="opacity:1" fill="#004080" d="M 255.5,361.5 C 270.833,361.5 286.167,361.5 301.5,361.5C 301.5,371.5 301.5,381.5 301.5,391.5C 291.5,391.5 281.5,391.5 271.5,391.5C 271.5,401.5 271.5,411.5 271.5,421.5C 281.5,421.5 291.5,421.5 301.5,421.5C 301.5,431.5 301.5,441.5 301.5,451.5C 291.5,451.5 281.5,451.5 271.5,451.5C 271.5,461.5 271.5,471.5 271.5,481.5C 281.5,481.5 291.5,481.5 301.5,481.5C 301.5,491.5 301.5,501.5 301.5,511.5C 286.167,511.5 270.833,511.5 255.5,511.5C 255.5,461.5 255.5,411.5 255.5,361.5 Z"/></g>
<g><path style="opacity:0.995" fill="#004080" d="M 451.5,511.5 C 441.167,511.5 430.833,511.5 420.5,511.5C 420.667,478.498 420.5,445.498 420,412.5C 410.422,431.989 400.589,451.323 390.5,470.5C 380.628,452.09 371.295,433.423 362.5,414.5C 362.217,413.711 361.717,413.044 361,412.5C 360.5,445.498 360.333,478.498 360.5,511.5C 350.5,511.5 340.5,511.5 330.5,511.5C 330.5,461.5 330.5,411.5 330.5,361.5C 343.837,361.333 357.171,361.5 370.5,362C 377.039,374.912 383.706,387.745 390.5,400.5C 397.294,387.745 403.961,374.912 410.5,362C 424.163,361.5 437.829,361.333 451.5,361.5C 451.5,411.5 451.5,461.5 451.5,511.5 Z"/></g>
<g><path style="opacity:0.039" fill="#004c80" d="M 362.5,414.5 C 361.502,446.662 361.168,478.996 361.5,511.5C 361.167,511.5 360.833,511.5 360.5,511.5C 360.333,478.498 360.5,445.498 361,412.5C 361.717,413.044 362.217,413.711 362.5,414.5 Z"/></g>
</svg>
