<?xml version="1.0" standalone="no"?>
<!DOCTYPE svg PUBLIC "-//W3C//DTD SVG 20010904//EN"
 "http://www.w3.org/TR/2001/REC-SVG-20010904/DTD/svg10.dtd">
<svg version="1.0" xmlns="http://www.w3.org/2000/svg"
 width="200.000000pt" height="200.000000pt" viewBox="0 0 200.000000 200.000000"
 preserveAspectRatio="xMidYMid meet">

<g transform="translate(0.000000,200.000000) scale(0.100000,-0.100000)"
fill="#000000" stroke="none">
<path d="M960 1868 c-72 -20 -120 -97 -106 -172 8 -40 47 -92 76 -101 19 -6
20 -16 20 -176 l0 -169 -50 0 -50 0 0 54 c0 72 -12 102 -63 154 -40 41 -42 45
-42 107 0 68 -15 99 -68 139 -37 27 -117 27 -155 0 -89 -67 -96 -170 -17 -244
23 -21 37 -25 96 -26 67 -1 72 -3 110 -40 36 -35 39 -43 39 -91 l0 -52 -239
-3 c-225 -3 -241 -4 -268 -24 -58 -44 -68 -75 -68 -224 0 -149 10 -180 68
-224 27 -20 43 -21 268 -24 l239 -3 0 -50 c0 -44 -5 -55 -38 -91 -38 -40 -40
-41 -110 -42 -61 -1 -74 -4 -97 -26 -79 -74 -72 -177 17 -244 38 -27 118 -27
155 0 53 40 68 71 68 139 0 62 2 66 42 107 51 52 63 82 63 154 l0 54 50 0 50
0 0 -167 0 -168 -29 -17 c-126 -71 -68 -268 79 -268 147 0 205 197 79 268
l-29 17 0 168 0 167 50 0 50 0 0 -54 c0 -72 12 -102 63 -154 40 -41 42 -45 42
-107 0 -68 15 -99 68 -139 37 -27 117 -27 155 0 89 67 96 170 17 244 -23 21
-37 25 -96 26 -67 1 -72 3 -110 40 -36 35 -39 43 -39 91 l0 52 239 3 c225 3
241 4 268 24 58 44 68 75 68 224 0 149 -10 180 -68 224 -27 20 -43 21 -268 24
l-239 3 0 52 c0 49 3 56 40 92 39 38 43 40 98 37 44 -2 65 2 90 17 95 60 95
184 0 255 -38 27 -118 27 -155 0 -53 -40 -68 -71 -68 -139 0 -62 -2 -66 -42
-107 -51 -52 -63 -82 -63 -154 l0 -54 -50 0 -50 0 0 170 c0 97 4 170 9 170 5
0 23 12 40 26 37 30 56 88 47 138 -9 45 -57 102 -94 110 -15 4 -34 9 -42 10
-8 2 -31 0 -50 -6z m78 -110 c7 -7 12 -21 12 -33 0 -28 -19 -45 -50 -45 -31 0
-50 17 -50 45 0 28 19 45 50 45 14 0 31 -5 38 -12z m-400 -150 c7 -7 12 -21
12 -33 0 -28 -19 -45 -50 -45 -31 0 -50 17 -50 45 0 28 19 45 50 45 14 0 31
-5 38 -12z m800 0 c7 -7 12 -21 12 -33 0 -28 -19 -45 -50 -45 -31 0 -50 17
-50 45 0 28 19 45 50 45 14 0 31 -5 38 -12z m270 -470 c17 -17 17 -259 0 -276
-17 -17 -1399 -17 -1416 0 -17 17 -17 259 0 276 17 17 1399 17 1416 0z m-1070
-680 c7 -7 12 -21 12 -33 0 -28 -19 -45 -50 -45 -31 0 -50 17 -50 45 0 28 19
45 50 45 14 0 31 -5 38 -12z m800 0 c7 -7 12 -21 12 -33 0 -28 -19 -45 -50
-45 -31 0 -50 17 -50 45 0 28 19 45 50 45 14 0 31 -5 38 -12z m-400 -150 c7
-7 12 -21 12 -33 0 -28 -19 -45 -50 -45 -31 0 -50 17 -50 45 0 28 19 45 50 45
14 0 31 -5 38 -12z"/>
<path d="M1242 1038 c-15 -15 -15 -61 0 -76 15 -15 51 -15 66 0 7 7 12 24 12
38 0 31 -17 50 -45 50 -12 0 -26 -5 -33 -12z"/>
<path d="M1392 1038 c-7 -7 -12 -24 -12 -38 0 -31 17 -50 45 -50 28 0 45 19
45 50 0 31 -17 50 -45 50 -12 0 -26 -5 -33 -12z"/>
<path d="M1542 1038 c-7 -7 -12 -24 -12 -38 0 -31 17 -50 45 -50 28 0 45 19
45 50 0 31 -17 50 -45 50 -12 0 -26 -5 -33 -12z"/>
</g>
</svg>
