<?xml version="1.0" encoding="UTF-8"?>
<!DOCTYPE svg PUBLIC "-//W3C//DTD SVG 1.1//EN" "http://www.w3.org/Graphics/SVG/1.1/DTD/svg11.dtd">
<svg xmlns="http://www.w3.org/2000/svg" version="1.1" width="512px" height="512px" style="shape-rendering:geometricPrecision; text-rendering:geometricPrecision; image-rendering:optimizeQuality; fill-rule:evenodd; clip-rule:evenodd" xmlns:xlink="http://www.w3.org/1999/xlink">
<g><path style="opacity:0.995" fill="#25272c" d="M 367.5,84.5 C 365.745,85.0722 364.078,85.9055 362.5,87C 360.833,87.6667 359.167,87.6667 357.5,87C 343.387,78.3038 328.387,71.9705 312.5,68C 331.193,84.8511 345.36,105.018 355,128.5C 356.895,133.955 359.062,139.289 361.5,144.5C 375.261,139.369 388.428,133.036 401,125.5C 401.667,124.5 401.667,123.5 401,122.5C 394.946,116.446 388.946,110.446 383,104.5C 382.288,101.562 382.788,98.8957 384.5,96.5C 386.926,94.7815 389.593,94.2815 392.5,95C 414.242,113.308 431.575,135.141 444.5,160.5C 470.119,165.619 485.619,180.953 491,206.5C 491.667,239.167 491.667,271.833 491,304.5C 485.628,330.038 470.128,345.372 444.5,350.5C 411.254,412.541 359.921,450.375 290.5,464C 203.194,474.908 133.361,445.408 81,375.5C 75.6617,367.494 70.8283,359.161 66.5,350.5C 39.8076,344.975 24.1409,328.808 19.5,302C 19.9521,297.715 22.2854,295.215 26.5,294.5C 28.9628,294.781 31.1295,295.781 33,297.5C 35.5532,317.816 46.7198,330.316 66.5,335C 192.167,335.667 317.833,335.667 443.5,335C 460.386,331.779 471.219,321.945 476,305.5C 476.667,271.833 476.667,238.167 476,204.5C 470.782,188.616 459.948,179.116 443.5,176C 317.833,175.333 192.167,175.333 66.5,176C 46.7198,180.684 35.5532,193.184 33,213.5C 31.2658,215.451 29.0991,216.451 26.5,216.5C 22.3238,215.821 19.9905,213.321 19.5,209C 24.1245,182.208 39.7912,166.041 66.5,160.5C 107.157,85.9805 170.157,47.3139 255.5,44.5C 294.532,44.4564 330.865,54.2898 364.5,74C 367.1,76.9836 368.1,80.4836 367.5,84.5 Z"/></g>
<g><path style="opacity:1" fill="#70d1ed" d="M 241.5,59.5 C 243.833,59.5 246.167,59.5 248.5,59.5C 248.5,93.5 248.5,127.5 248.5,161.5C 219.621,161.041 191.288,157.041 163.5,149.5C 172.597,120.119 188.597,95.2854 211.5,75C 220.599,67.9513 230.599,62.7846 241.5,59.5 Z"/></g>
<g><path style="opacity:1" fill="#4bb7de" d="M 262.5,59.5 C 281.703,62.5179 297.87,71.1846 311,85.5C 327.551,104.261 339.718,125.594 347.5,149.5C 331.942,152.978 316.276,156.145 300.5,159C 287.858,160.248 275.191,161.082 262.5,161.5C 262.5,127.5 262.5,93.5 262.5,59.5 Z"/></g>
<g><path style="opacity:1" fill="#95e7fb" d="M 195.5,67.5 C 196.552,67.3505 197.552,67.5172 198.5,68C 185.449,79.7179 174.616,93.2179 166,108.5C 159.674,120.151 154.174,132.151 149.5,144.5C 135.739,139.369 122.572,133.036 110,125.5C 109.685,124.092 110.018,122.759 111,121.5C 134.888,96.774 163.054,78.774 195.5,67.5 Z"/></g>
<g><path style="opacity:0.998" fill="#269dcd" d="M 367.5,84.5 C 373.342,88.2541 379.009,92.2541 384.5,96.5C 382.788,98.8957 382.288,101.562 383,104.5C 388.946,110.446 394.946,116.446 401,122.5C 401.667,123.5 401.667,124.5 401,125.5C 388.428,133.036 375.261,139.369 361.5,144.5C 359.062,139.289 356.895,133.955 355,128.5C 345.36,105.018 331.193,84.8511 312.5,68C 328.387,71.9705 343.387,78.3038 357.5,87C 359.167,87.6667 360.833,87.6667 362.5,87C 364.078,85.9055 365.745,85.0722 367.5,84.5 Z"/></g>
<g><path style="opacity:1" fill="#269dcc" d="M 98.5,135.5 C 113.597,144.047 129.263,151.547 145.5,158C 144.663,159.011 144.33,160.178 144.5,161.5C 123.831,161.667 103.164,161.5 82.5,161C 87.6888,152.332 93.0221,143.832 98.5,135.5 Z"/></g>
<g><path style="opacity:1" fill="#95e8fc" d="M 410.5,135.5 C 417.414,143.265 423.414,151.765 428.5,161C 407.836,161.5 387.169,161.667 366.5,161.5C 366.034,159.799 366.034,158.299 366.5,157C 382.179,151.659 396.846,144.493 410.5,135.5 Z"/></g>
<g><path style="opacity:1" fill="#eae9fb" d="M 26.5,294.5 C 26.5,287.167 26.5,279.833 26.5,272.5C 30.0627,272.375 32.5627,270.708 34,267.5C 34.6667,259.5 34.6667,251.5 34,243.5C 32.5627,240.292 30.0627,238.625 26.5,238.5C 26.5,231.167 26.5,223.833 26.5,216.5C 29.0991,216.451 31.2658,215.451 33,213.5C 35.5532,193.184 46.7198,180.684 66.5,176C 192.167,175.333 317.833,175.333 443.5,176C 459.948,179.116 470.782,188.616 476,204.5C 476.667,238.167 476.667,271.833 476,305.5C 471.219,321.945 460.386,331.779 443.5,335C 317.833,335.667 192.167,335.667 66.5,335C 46.7198,330.316 35.5532,317.816 33,297.5C 31.1295,295.781 28.9628,294.781 26.5,294.5 Z"/></g>
<g><path style="opacity:1" fill="#27282d" d="M 112.5,203.5 C 115.862,203.07 118.695,204.07 121,206.5C 131.883,231.66 143.05,256.66 154.5,281.5C 165.603,256.959 176.437,232.293 187,207.5C 191.251,202.274 195.585,202.274 200,207.5C 200.584,210.257 200.25,212.923 199,215.5C 186,245.167 173,274.833 160,304.5C 155.615,308.756 151.615,308.423 148,303.5C 135,273.5 122,243.5 109,213.5C 108.333,211.5 108.333,209.5 109,207.5C 110.376,206.295 111.542,204.962 112.5,203.5 Z"/></g>
<g><path style="opacity:1" fill="#27282d" d="M 225.5,203.5 C 241.557,203.062 257.557,203.562 273.5,205C 281.333,207.5 286.5,212.667 289,220.5C 289.667,228.5 289.667,236.5 289,244.5C 286.526,253.64 280.693,259.474 271.5,262C 259.505,262.5 247.505,262.667 235.5,262.5C 235.667,275.837 235.5,289.171 235,302.5C 231.087,308.617 226.754,308.951 222,303.5C 221.333,271.5 221.333,239.5 222,207.5C 223.376,206.295 224.542,204.962 225.5,203.5 Z"/></g>
<g><path style="opacity:1" fill="#27282e" d="M 357.5,272.5 C 357.56,273.043 357.893,273.376 358.5,273.5C 359.5,251.844 359.833,230.177 359.5,208.5C 362.983,202.271 367.15,201.938 372,207.5C 372.667,239.167 372.667,270.833 372,302.5C 368.902,308.319 364.902,308.986 360,304.5C 347.938,283.277 336.105,261.944 324.5,240.5C 324.217,239.711 323.717,239.044 323,238.5C 322.5,259.497 322.333,280.497 322.5,301.5C 320.696,307.369 317.029,308.869 311.5,306C 310.789,304.745 309.956,303.579 309,302.5C 308.333,271.167 308.333,239.833 309,208.5C 312.412,202.85 316.579,202.183 321.5,206.5C 334.033,228.234 346.033,250.234 357.5,272.5 Z"/></g>
<g><path style="opacity:1" fill="#3d3e45" d="M 359.5,208.5 C 359.833,230.177 359.5,251.844 358.5,273.5C 357.893,273.376 357.56,273.043 357.5,272.5C 358.167,251.167 358.833,229.833 359.5,208.5 Z"/></g>
<g><path style="opacity:1" fill="#eae9fb" d="M 235.5,217.5 C 247.576,217.062 259.576,217.562 271.5,219C 272.667,220.167 273.833,221.333 275,222.5C 275.667,229.167 275.667,235.833 275,242.5C 274.215,244.286 273.049,245.786 271.5,247C 259.576,248.438 247.576,248.938 235.5,248.5C 235.5,238.167 235.5,227.833 235.5,217.5 Z"/></g>
<g><path style="opacity:0.97" fill="#292a30" d="M 26.5,238.5 C 30.0627,238.625 32.5627,240.292 34,243.5C 34.6667,251.5 34.6667,259.5 34,267.5C 32.5627,270.708 30.0627,272.375 26.5,272.5C 23.4392,272.556 21.2725,271.222 20,268.5C 19.3333,259.833 19.3333,251.167 20,242.5C 21.2725,239.778 23.4392,238.444 26.5,238.5 Z"/></g>
<g><path style="opacity:1" fill="#9d9ca9" d="M 324.5,240.5 C 323.833,260.833 323.167,281.167 322.5,301.5C 322.333,280.497 322.5,259.497 323,238.5C 323.717,239.044 324.217,239.711 324.5,240.5 Z"/></g>
<g><path style="opacity:1" fill="#95e8fc" d="M 82.5,350.5 C 103.004,349.172 123.671,349.172 144.5,350.5C 144.833,351.167 145.167,351.833 145.5,352.5C 129.64,359.097 114.307,366.763 99.5,375.5C 93.3837,367.4 87.717,359.066 82.5,350.5 Z"/></g>
<g><path style="opacity:1" fill="#4bb7dd" d="M 230.5,349.5 C 236.5,349.5 242.5,349.5 248.5,349.5C 248.5,383.5 248.5,417.5 248.5,451.5C 234.644,449.938 222.311,444.771 211.5,436C 188.597,415.715 172.597,390.881 163.5,361.5C 185.651,355.816 207.984,351.816 230.5,349.5 Z"/></g>
<g><path style="opacity:1" fill="#70d1ee" d="M 262.5,349.5 C 291.081,349.85 319.081,354.017 346.5,362C 337.343,395.184 318.676,421.85 290.5,442C 281.917,447.472 272.584,450.638 262.5,451.5C 262.5,417.5 262.5,383.5 262.5,349.5 Z"/></g>
<g><path style="opacity:1" fill="#269dcc" d="M 366.5,349.5 C 387.169,349.333 407.836,349.5 428.5,350C 423.448,359.049 417.614,367.549 411,375.5C 397.038,366.603 382.204,359.436 366.5,354C 365.587,352.586 365.587,351.086 366.5,349.5 Z"/></g>
<g><path style="opacity:1" fill="#269dcc" d="M 148.5,366.5 C 155.457,382.077 163.29,397.41 172,412.5C 179.399,423.9 188.232,434.066 198.5,443C 163.949,433.131 134.449,414.964 110,388.5C 109.333,387.5 109.333,386.5 110,385.5C 122.447,378.192 135.281,371.859 148.5,366.5 Z"/></g>
<g><path style="opacity:1" fill="#95e8fb" d="M 360.5,366.5 C 374.688,371.344 388.188,377.677 401,385.5C 401.315,386.908 400.982,388.241 400,389.5C 375.707,415.392 346.541,433.225 312.5,443C 335.146,421.816 351.146,396.316 360.5,366.5 Z"/></g>
</svg>
