<?xml version="1.0" encoding="UTF-8"?>
<!DOCTYPE svg PUBLIC "-//W3C//DTD SVG 1.1//EN" "http://www.w3.org/Graphics/SVG/1.1/DTD/svg11.dtd">
<svg xmlns="http://www.w3.org/2000/svg" version="1.1" width="512px" height="512px" style="shape-rendering:geometricPrecision; text-rendering:geometricPrecision; image-rendering:optimizeQuality; fill-rule:evenodd; clip-rule:evenodd" xmlns:xlink="http://www.w3.org/1999/xlink">
<g><path style="opacity:0.993" fill="#000000" d="M 27.5,23.5 C 179.5,23.3333 331.5,23.5 483.5,24C 493.333,27.1667 499.833,33.6667 503,43.5C 503.667,163.5 503.667,283.5 503,403.5C 499.833,413.333 493.333,419.833 483.5,423C 441.833,423.333 400.167,423.667 358.5,424C 354.937,434.141 348.937,442.474 340.5,449C 314.167,466.667 287.833,484.333 261.5,502C 257.5,504 253.5,504 249.5,502C 223.167,484.333 196.833,466.667 170.5,449C 162.063,442.474 156.063,434.141 152.5,424C 110.833,423.667 69.1667,423.333 27.5,423C 17.6667,419.833 11.1667,413.333 8,403.5C 7.33333,283.5 7.33333,163.5 8,43.5C 11.3514,33.6498 17.8514,26.9831 27.5,23.5 Z"/></g>
<g><path style="opacity:1" fill="#3d3c41" d="M 31.5,39.5 C 180.5,39.3333 329.5,39.5 478.5,40C 482.251,41.4151 485.084,43.9151 487,47.5C 487.5,55.4931 487.666,63.4931 487.5,71.5C 332.833,71.5 178.167,71.5 23.5,71.5C 23.3336,63.4931 23.5003,55.4931 24,47.5C 26.0282,44.3078 28.5282,41.6411 31.5,39.5 Z"/></g>
<g><path style="opacity:1" fill="#020202" d="M 36.5,47.5 C 41.9586,47.1033 47.2919,47.6033 52.5,49C 56.9258,54.4414 56.2591,59.1081 50.5,63C 45.0509,63.8962 39.7175,63.5628 34.5,62C 30.1275,56.4079 30.7942,51.5746 36.5,47.5 Z"/></g>
<g><path style="opacity:1" fill="#020202" d="M 68.5,47.5 C 73.9586,47.1033 79.2919,47.6033 84.5,49C 88.9258,54.4414 88.2591,59.1081 82.5,63C 77.0509,63.8962 71.7175,63.5628 66.5,62C 62.1275,56.4079 62.7942,51.5746 68.5,47.5 Z"/></g>
<g><path style="opacity:1" fill="#020202" d="M 100.5,47.5 C 105.959,47.1033 111.292,47.6033 116.5,49C 120.926,54.4414 120.259,59.1081 114.5,63C 109.051,63.8962 103.718,63.5628 98.5,62C 94.1275,56.4079 94.7942,51.5746 100.5,47.5 Z"/></g>
<g><path style="opacity:1" fill="#d7d6d9" d="M 23.5,87.5 C 178.167,87.5 332.833,87.5 487.5,87.5C 487.667,191.501 487.5,295.501 487,399.5C 485.167,402.667 482.667,405.167 479.5,407C 439.835,407.5 400.168,407.667 360.5,407.5C 362.89,374.483 365.557,341.483 368.5,308.5C 368.522,306.035 368.022,303.702 367,301.5C 330.008,285.672 292.675,270.672 255,256.5C 218.901,270.798 182.735,284.964 146.5,299C 144.714,299.785 143.214,300.951 142,302.5C 141.333,307.833 141.333,313.167 142,318.5C 145.109,348.145 147.943,377.811 150.5,407.5C 110.832,407.667 71.1653,407.5 31.5,407C 28.3333,405.167 25.8333,402.667 24,399.5C 23.5,295.501 23.3333,191.501 23.5,87.5 Z"/></g>
<g><path style="opacity:1" fill="#000000" d="M 156.5,127.5 C 223.225,127.01 289.892,127.51 356.5,129C 357.701,129.903 358.535,131.069 359,132.5C 359.97,156.563 359.637,180.563 358,204.5C 356.829,205.893 355.329,206.727 353.5,207C 287.833,207.667 222.167,207.667 156.5,207C 153.898,206.065 152.398,204.232 152,201.5C 151.333,178.5 151.333,155.5 152,132.5C 153.025,130.313 154.525,128.646 156.5,127.5 Z"/></g>
<g><path style="opacity:1" fill="#fed943" d="M 167.5,143.5 C 226.167,143.5 284.833,143.5 343.5,143.5C 343.5,159.5 343.5,175.5 343.5,191.5C 284.833,191.5 226.167,191.5 167.5,191.5C 167.5,175.5 167.5,159.5 167.5,143.5 Z"/></g>
<g><path style="opacity:1" fill="#0d0b03" d="M 188.5,159.5 C 199.167,160.003 201.833,164.836 196.5,174C 187.42,177.215 183.253,174.048 184,164.5C 185.025,162.313 186.525,160.646 188.5,159.5 Z"/></g>
<g><path style="opacity:1" fill="#0d0b03" d="M 220.5,159.5 C 231.167,160.003 233.833,164.836 228.5,174C 219.42,177.215 215.253,174.048 216,164.5C 217.025,162.313 218.525,160.646 220.5,159.5 Z"/></g>
<g><path style="opacity:1" fill="#0d0b03" d="M 252.5,159.5 C 263.167,160.003 265.833,164.836 260.5,174C 251.42,177.215 247.253,174.048 248,164.5C 249.025,162.313 250.525,160.646 252.5,159.5 Z"/></g>
<g><path style="opacity:1" fill="#0d0b03" d="M 284.5,159.5 C 295.167,160.003 297.833,164.836 292.5,174C 283.42,177.215 279.253,174.048 280,164.5C 281.025,162.313 282.525,160.646 284.5,159.5 Z"/></g>
<g><path style="opacity:1" fill="#0d0b03" d="M 316.5,159.5 C 327.167,160.003 329.833,164.836 324.5,174C 315.42,177.215 311.253,174.048 312,164.5C 313.025,162.313 314.525,160.646 316.5,159.5 Z"/></g>
<g><path style="opacity:1" fill="#3c3b40" d="M 253.5,273.5 C 286.595,285.879 319.595,298.546 352.5,311.5C 349.665,346.858 346.498,382.191 343,417.5C 339.886,425.9 334.719,432.733 327.5,438C 303.636,454.03 279.636,469.863 255.5,485.5C 230.303,468.47 204.969,451.637 179.5,435C 170.549,426.5 166.049,416 166,403.5C 163.191,372.82 160.358,342.153 157.5,311.5C 189.802,299.404 221.802,286.737 253.5,273.5 Z"/></g>
<g><path style="opacity:1" fill="#030201" d="M 252.5,282.5 C 254.527,282.338 256.527,282.505 258.5,283C 286.55,294.113 314.383,305.613 342,317.5C 342.958,319.199 343.458,321.033 343.5,323C 340.862,352.153 338.362,381.32 336,410.5C 335.004,419.334 330.838,426.168 323.5,431C 302.328,444.752 281.328,458.752 260.5,473C 257.167,475 253.833,475 250.5,473C 229.672,458.752 208.672,444.752 187.5,431C 181.429,426.585 177.262,420.752 175,413.5C 172.347,383.315 169.514,353.149 166.5,323C 166.565,318.265 168.898,315.265 173.5,314C 200.052,303.767 226.386,293.267 252.5,282.5 Z"/></g>
<g><path style="opacity:1" fill="#fdd843" d="M 252.5,299.5 C 255.271,299.421 257.937,299.921 260.5,301C 282.087,309.862 303.754,318.529 325.5,327C 326.134,329.075 326.468,331.241 326.5,333.5C 324.388,359.171 322.222,384.838 320,410.5C 319.333,411.833 318.667,413.167 318,414.5C 297.425,428.872 276.592,442.872 255.5,456.5C 234.408,442.872 213.575,428.872 193,414.5C 192.138,412.913 191.471,411.246 191,409.5C 188.104,382.184 185.771,354.851 184,327.5C 207.037,318.438 229.87,309.105 252.5,299.5 Z"/></g>
<g><path style="opacity:1" fill="#090602" d="M 292.5,343.5 C 302.034,343.244 305.201,347.578 302,356.5C 285.5,373 269,389.5 252.5,406C 249.923,407.25 247.257,407.584 244.5,407C 235.074,401.205 225.908,395.038 217,388.5C 214.167,378 218,374.167 228.5,377C 233.833,380.667 239.167,384.333 244.5,388C 245.5,388.667 246.5,388.667 247.5,388C 262.395,372.938 277.395,358.104 292.5,343.5 Z"/></g>
</svg>
