<?xml version="1.0" standalone="no"?>
<!DOCTYPE svg PUBLIC "-//W3C//DTD SVG 20010904//EN"
 "http://www.w3.org/TR/2001/REC-SVG-20010904/DTD/svg10.dtd">
<svg version="1.0" xmlns="http://www.w3.org/2000/svg"
 width="600.000000pt" height="600.000000pt" viewBox="0 0 600.000000 600.000000"
 preserveAspectRatio="xMidYMid meet">

<g transform="translate(0.000000,600.000000) scale(0.100000,-0.100000)"
fill="#000000" stroke="none">
<path d="M2750 5545 c0 -168 1 -175 20 -175 18 0 20 8 22 143 l3 142 95 -140
c69 -101 101 -141 118 -143 l22 -3 0 175 c0 169 -1 176 -20 176 -18 0 -20 -8
-22 -141 l-3 -141 -95 141 c-75 111 -100 141 -117 141 -23 0 -23 0 -23 -175z"/>
<path d="M4410 5545 c0 -168 1 -175 20 -175 18 0 20 7 20 62 l0 62 63 -62 c39
-39 71 -62 85 -62 12 0 22 2 22 4 0 2 -31 34 -69 71 l-70 67 60 50 c32 27 59
54 59 59 0 21 -33 6 -89 -41 l-61 -51 0 96 c0 88 -1 95 -20 95 -19 0 -20 -7
-20 -175z"/>
<path d="M4660 5700 c0 -15 7 -20 25 -20 18 0 25 5 25 20 0 15 -7 20 -25 20
-18 0 -25 -5 -25 -20z"/>
<path d="M3410 5656 c0 -15 -7 -26 -20 -29 -11 -3 -20 -10 -20 -17 0 -7 9 -14
20 -17 18 -5 20 -14 20 -99 0 -82 3 -97 21 -115 24 -24 72 -23 77 3 3 13 -3
16 -25 15 l-28 -2 -3 97 -3 97 28 3 c37 4 37 32 1 36 -22 3 -28 9 -28 28 0 17
-5 24 -20 24 -14 0 -20 -7 -20 -24z"/>
<path d="M3134 5596 c-31 -31 -34 -39 -34 -92 0 -100 58 -156 145 -140 35 7
85 49 85 72 0 19 -29 18 -37 -1 -3 -9 -19 -23 -35 -31 -42 -22 -85 -10 -109
29 -33 55 -29 57 85 57 l103 0 -7 42 c-11 61 -56 98 -116 98 -39 0 -51 -5 -80
-34z m121 -2 c14 -6 45 -53 45 -69 0 -3 -38 -5 -85 -5 -76 0 -84 2 -78 18 18
50 69 74 118 56z"/>
<path d="M3540 5618 c0 -7 16 -66 37 -130 33 -107 39 -118 60 -118 12 0 23 6
23 13 0 6 13 53 28 102 l29 90 33 -102 c29 -86 38 -103 55 -103 17 0 25 18 56
125 24 80 33 128 26 132 -16 10 -31 -18 -57 -116 l-24 -92 -36 103 c-28 82
-39 103 -54 103 -15 0 -25 -19 -50 -105 l-31 -105 -33 108 c-22 70 -39 107
-48 107 -8 0 -14 -6 -14 -12z"/>
<path d="M3993 5620 c-68 -27 -85 -161 -28 -220 53 -55 148 -48 186 14 37 60
20 163 -33 200 -24 17 -90 20 -125 6z m116 -46 c26 -33 29 -118 6 -151 -29
-41 -98 -38 -132 6 -7 9 -13 39 -13 67 0 70 26 104 80 104 30 0 43 -6 59 -26z"/>
<path d="M4240 5500 c0 -105 3 -130 14 -130 11 0 15 22 18 96 3 86 5 98 27
115 13 10 34 19 47 19 15 0 24 6 24 15 0 21 -63 20 -81 -1 -11 -14 -13 -14
-21 0 -21 38 -28 10 -28 -114z"/>
<path d="M4670 5500 c0 -109 2 -130 15 -130 13 0 15 21 15 130 0 109 -2 130
-15 130 -13 0 -15 -21 -15 -130z"/>
<path d="M4787 5623 c-4 -3 -7 -62 -7 -130 0 -116 1 -123 20 -123 19 0 20 7
20 95 0 107 14 135 68 135 51 0 62 -25 62 -133 0 -90 1 -97 20 -97 19 0 20 7
20 89 0 95 -10 136 -38 157 -32 25 -112 13 -134 -20 -5 -6 -8 -1 -8 12 0 22
-10 28 -23 15z"/>
<path d="M5088 5601 c-31 -28 -33 -33 -33 -96 0 -63 2 -68 34 -97 28 -25 40
-29 75 -26 22 3 49 8 59 12 14 7 17 3 17 -21 0 -39 -28 -63 -74 -63 -27 0 -43
7 -60 25 -23 25 -46 33 -46 16 0 -42 48 -71 115 -71 38 0 52 5 76 29 l29 29 0
146 c0 123 -2 146 -15 146 -9 0 -15 -9 -15 -22 0 -13 -3 -18 -8 -12 -28 43
-109 45 -154 5z m129 -21 c28 -26 37 -72 23 -115 -19 -58 -83 -74 -127 -33
-32 30 -33 111 -1 145 27 29 76 30 105 3z"/>
<path d="M2843 5153 c-67 -160 -123 -298 -123 -305 0 -4 7 -8 16 -8 9 0 24 20
37 50 l21 50 84 0 83 0 21 -50 c14 -35 26 -50 39 -50 11 0 19 1 19 3 0 2 -31
79 -69 173 -56 136 -74 170 -90 172 -17 3 -25 -5 -38 -35z m75 -103 l30 -75
-65 -3 c-36 -2 -67 -1 -69 1 -3 2 10 41 27 86 18 45 36 78 40 74 4 -4 21 -42
37 -83z"/>
<path d="M3820 5129 l0 -60 -22 15 c-12 9 -40 16 -61 16 -31 0 -46 -7 -73 -34
-31 -31 -34 -39 -34 -92 0 -71 23 -115 70 -134 29 -12 39 -12 79 3 27 10 47
12 49 7 2 -6 10 -10 18 -10 12 0 14 31 14 175 0 168 -1 175 -20 175 -18 0 -20
-7 -20 -61z m-21 -85 c23 -29 29 -110 11 -143 -15 -28 -61 -44 -94 -32 -57 22
-71 128 -23 179 29 32 79 30 106 -4z"/>
<path d="M3129 5085 c-45 -25 -69 -112 -46 -175 14 -39 67 -80 104 -80 51 0
113 47 113 85 0 15 -40 2 -45 -14 -3 -10 -19 -24 -35 -31 -77 -32 -140 73 -95
159 25 49 91 57 123 16 20 -25 52 -34 52 -14 0 6 -13 24 -29 40 -24 23 -38 29
-73 29 -24 -1 -55 -7 -69 -15z"/>
<path d="M3405 5088 c-25 -13 -45 -38 -45 -55 0 -22 27 -15 44 12 22 34 87 36
110 3 25 -35 19 -45 -31 -53 -106 -16 -148 -55 -124 -114 22 -52 107 -66 153
-24 17 15 18 15 18 0 0 -10 7 -17 15 -17 12 0 15 18 15 105 0 99 -2 107 -25
130 -27 27 -92 34 -130 13z m125 -142 c0 -57 -71 -101 -116 -71 -44 29 -26 70
39 85 61 15 77 12 77 -14z"/>
<path d="M3964 5066 c-34 -34 -40 -56 -35 -121 6 -66 58 -115 122 -115 47 0
109 48 109 85 0 13 -30 3 -42 -13 -36 -51 -107 -50 -139 2 -33 53 -29 56 81
56 l100 0 0 36 c0 28 -8 44 -34 70 -29 29 -41 34 -81 34 -40 0 -52 -5 -81 -34z
m126 -6 c10 -5 23 -23 28 -40 l11 -30 -84 0 c-76 0 -84 2 -78 18 19 52 76 77
123 52z"/>
<path d="M4237 5093 c-4 -3 -7 -62 -7 -130 0 -116 1 -123 20 -123 19 0 20 7
20 93 0 80 3 96 20 115 23 24 69 29 88 10 8 -8 12 -48 12 -115 0 -96 1 -103
20 -103 19 0 20 7 20 95 0 107 14 135 70 135 41 0 50 -23 50 -134 0 -89 1 -96
20 -96 18 0 20 7 20 89 0 97 -12 146 -40 161 -28 15 -83 12 -108 -6 -20 -14
-24 -14 -44 0 -27 19 -89 21 -106 4 -9 -9 -15 -9 -24 0 -14 14 -22 15 -31 5z"/>
<path d="M4640 5091 c0 -5 23 -67 51 -136 45 -108 50 -129 41 -150 -7 -15 -20
-25 -32 -25 -11 0 -20 -7 -20 -15 0 -10 10 -15 30 -15 24 0 33 7 48 38 29 57
115 302 109 309 -17 16 -35 -14 -67 -106 -19 -55 -38 -101 -41 -101 -3 0 -24
46 -46 103 -25 64 -47 103 -57 105 -9 2 -16 -1 -16 -7z"/>
<path d="M445 4509 c-121 -39 -209 -134 -241 -259 -15 -58 -16 -108 -10 -444
4 -209 8 -381 9 -382 1 -2 34 4 72 12 180 39 336 56 561 61 404 10 730 -30
1159 -142 306 -80 422 -101 653 -114 508 -31 1027 106 1447 380 143 93 218
152 340 269 189 181 359 300 577 404 193 92 402 156 598 182 l55 7 -45 21 -45
21 -2535 2 c-2487 2 -2536 2 -2595 -18z m334 -256 c11 -38 28 -96 37 -130 10
-35 20 -63 24 -63 4 0 14 28 24 63 9 34 26 92 37 130 l20 67 39 0 c22 0 40 -3
40 -7 0 -5 -24 -82 -54 -173 l-53 -165 -54 -3 -54 -3 -54 163 c-30 90 -56 169
-58 176 -4 8 8 12 41 12 l45 0 20 -67z m839 30 c3 -33 3 -33 -42 -33 -46 0
-46 0 -46 36 l0 35 43 -3 c39 -3 42 -5 45 -35z m222 8 c0 -26 -4 -30 -32 -33
-46 -4 -53 -38 -9 -38 28 0 31 -3 31 -30 0 -27 -3 -30 -30 -30 l-30 0 0 -95 0
-95 -40 0 -40 0 0 94 c0 85 -2 94 -20 99 -14 3 -20 14 -20 31 0 19 5 26 20 26
14 0 20 7 20 24 0 13 9 35 21 50 18 22 28 26 75 26 53 0 54 0 54 -29z m118 -8
c3 -33 3 -33 -42 -33 -46 0 -46 0 -46 36 l0 35 43 -3 c39 -3 42 -5 45 -35z
m630 -140 l2 -173 -34 0 c-19 0 -38 5 -41 10 -4 7 -14 5 -28 -5 -28 -19 -80
-19 -118 1 -72 37 -78 168 -10 229 24 21 90 27 124 11 15 -7 17 -2 17 41 0 27
3 53 7 57 4 4 23 6 43 4 l35 -3 3 -172z m-1382 71 c39 -19 62 -56 66 -106 l3
-33 -92 -3 c-51 -1 -93 -5 -93 -8 0 -3 5 -14 10 -25 12 -21 74 -27 85 -9 6 10
85 14 85 4 0 -17 -24 -46 -50 -59 -66 -34 -165 -10 -196 47 -22 38 -17 121 8
153 41 52 112 68 174 39z m292 -26 c3 -37 3 -38 -32 -38 -46 0 -56 -20 -56
-109 l0 -71 -45 0 -45 0 0 125 0 125 34 0 c19 0 38 -5 41 -10 4 -6 14 -5 28 5
12 9 33 14 47 13 21 -3 25 -9 28 -40z m697 28 c41 -18 75 -69 75 -113 l0 -33
-90 0 c-91 0 -108 -8 -78 -38 15 -15 64 -16 73 -2 6 10 95 14 95 5 0 -18 -36
-55 -62 -64 -115 -40 -220 32 -205 142 13 94 100 141 192 103z m-585 -121 l0
-125 -40 0 -40 0 0 125 0 125 40 0 40 0 0 -125z m340 0 l0 -125 -40 0 -40 0 0
125 0 125 40 0 40 0 0 -125z"/>
<path d="M2424 4162 c-34 -22 -41 -94 -13 -129 14 -16 63 -17 76 0 27 33 21
109 -10 129 -15 10 -39 10 -53 0z"/>
<path d="M1111 4161 c-32 -32 -25 -41 29 -41 33 0 50 4 50 13 -1 39 -50 57
-79 28z"/>
<path d="M2106 4164 c-31 -30 -20 -44 34 -44 54 0 61 9 30 40 -24 24 -43 25
-64 4z"/>
<path d="M5676 3789 c-142 -21 -315 -82 -450 -160 -122 -70 -183 -116 -307
-234 -141 -134 -221 -198 -419 -337 -24 -17 -23 -18 57 -15 l83 2 196 165
c108 91 235 193 283 227 105 76 269 163 373 198 81 27 242 55 316 55 l42 0 0
55 0 55 -57 -1 c-32 -1 -85 -5 -117 -10z"/>
<path d="M5785 2304 c-233 -95 -591 -174 -940 -208 -441 -44 -1070 -45 -2095
-6 -626 25 -1049 23 -1285 -5 -417 -49 -771 -138 -1087 -273 -62 -27 -128 -55
-145 -62 l-33 -12 0 -504 c0 -277 2 -504 4 -504 3 0 60 25 128 56 846 384
1830 666 2713 779 950 120 1902 57 2679 -180 65 -20 120 -34 122 -32 2 2 3
222 2 490 l-3 485 -60 -24z m-2875 -264 c392 -28 715 -52 717 -53 10 -11 -364
-173 -598 -260 -483 -179 -795 -243 -1234 -254 -313 -7 -540 13 -815 73 -201
44 -500 135 -500 152 0 16 214 124 360 182 214 85 537 163 790 190 291 31 471
27 1280 -30z"/>
<path d="M2955 1086 c-36 -16 -55 -52 -55 -107 0 -79 53 -129 122 -115 35 7
78 42 78 63 0 20 -9 16 -37 -17 -35 -42 -82 -42 -118 2 -23 27 -26 39 -22 76
10 86 89 123 143 65 27 -29 42 -26 25 5 -11 20 -59 42 -90 42 -9 -1 -30 -7
-46 -14z"/>
<path d="M3185 1086 c-36 -16 -55 -52 -55 -107 0 -79 53 -129 122 -115 35 7
78 42 78 63 0 20 -9 16 -37 -17 -35 -42 -82 -42 -118 2 -23 27 -26 39 -22 76
10 86 89 123 143 65 27 -29 42 -26 25 5 -11 20 -59 42 -90 42 -9 -1 -30 -7
-46 -14z"/>
<path d="M3380 980 c0 -147 18 -163 22 -20 l3 101 60 -98 c33 -54 68 -99 78
-101 15 -3 17 8 17 117 0 149 -18 164 -22 19 l-3 -103 -63 103 c-35 56 -70
102 -78 102 -11 0 -14 -23 -14 -120z"/>
<path d="M3665 1068 c-68 -166 -83 -208 -70 -208 7 0 19 16 25 35 l12 36 61
-3 c60 -3 62 -4 71 -35 5 -18 15 -33 22 -33 8 0 14 2 14 5 0 3 -21 57 -46 120
-49 123 -65 138 -89 83z m69 -96 c7 -21 5 -22 -43 -22 l-50 0 16 38 c8 20 20
48 25 62 10 25 10 25 28 -15 9 -22 20 -50 24 -63z"/>
<path d="M4053 1088 c-59 -28 -32 -84 53 -113 48 -16 60 -25 62 -44 7 -50 -72
-70 -115 -29 -28 27 -44 15 -17 -13 42 -42 134 -33 156 15 17 39 -10 71 -79
93 -60 19 -76 40 -53 68 18 22 76 19 100 -5 24 -24 42 -26 33 -5 -14 37 -93
56 -140 33z"/>
<path d="M4500 1085 c0 -8 7 -15 15 -15 8 0 15 7 15 15 0 8 -7 15 -15 15 -8 0
-15 -7 -15 -15z"/>
<path d="M4850 980 c0 -100 3 -120 15 -120 12 0 15 14 15 63 0 67 10 87 45 87
35 0 45 -20 45 -87 0 -35 4 -63 10 -63 6 0 10 29 10 68 0 54 -4 72 -18 85 -21
19 -45 21 -73 7 -17 -10 -19 -7 -19 35 0 33 -4 45 -15 45 -12 0 -15 -20 -15
-120z"/>
<path d="M5030 1085 c0 -8 7 -15 15 -15 8 0 15 7 15 15 0 8 -7 15 -15 15 -8 0
-15 -7 -15 -15z"/>
<path d="M4580 1056 c0 -13 -6 -27 -12 -30 -10 -5 -10 -7 0 -12 7 -3 12 -26
12 -60 0 -31 5 -64 10 -75 11 -20 45 -26 55 -9 3 6 -3 10 -14 10 -19 0 -21 6
-21 65 0 51 3 65 15 65 8 0 15 5 15 10 0 6 -7 10 -15 10 -9 0 -15 9 -15 25 0
16 -6 25 -15 25 -9 0 -15 -9 -15 -24z"/>
<path d="M3840 1015 c0 -8 7 -15 15 -15 8 0 15 7 15 15 0 8 -7 15 -15 15 -8 0
-15 -7 -15 -15z"/>
<path d="M4220 1023 c0 -5 11 -42 23 -83 31 -99 49 -103 72 -15 10 36 21 65
25 65 3 0 15 -28 26 -62 12 -38 26 -63 34 -63 15 0 67 152 55 163 -9 10 -21
-14 -35 -74 -7 -30 -16 -54 -20 -54 -4 0 -16 29 -25 65 -24 87 -42 84 -71 -10
l-21 -70 -22 73 c-12 39 -26 72 -31 72 -6 0 -10 -3 -10 -7z"/>
<path d="M4500 945 c0 -69 3 -85 15 -85 12 0 15 16 15 85 0 69 -3 85 -15 85
-12 0 -15 -16 -15 -85z"/>
<path d="M4696 1009 c-21 -16 -26 -29 -26 -62 0 -23 4 -47 8 -53 10 -16 48
-34 70 -34 24 0 70 35 60 46 -5 4 -16 0 -26 -9 -40 -36 -92 -7 -92 50 0 54 54
81 92 46 10 -9 21 -13 26 -9 11 11 -37 46 -63 46 -12 0 -34 -9 -49 -21z"/>
<path d="M5030 945 c0 -69 3 -85 15 -85 12 0 15 16 15 85 0 69 -3 85 -15 85
-12 0 -15 -16 -15 -85z"/>
<path d="M5100 945 c0 -69 3 -85 15 -85 12 0 15 14 15 63 0 67 10 87 45 87 35
0 45 -20 45 -87 0 -35 4 -63 10 -63 6 0 10 29 10 68 0 54 -4 72 -18 85 -21 19
-45 21 -72 7 -13 -7 -21 -7 -25 0 -17 27 -25 2 -25 -75z"/>
<path d="M5330 1023 c-37 -13 -53 -79 -30 -123 13 -23 59 -34 93 -21 23 9 27
8 27 -9 0 -44 -62 -66 -94 -34 -23 22 -40 13 -22 -11 20 -28 102 -28 122 -1
17 23 20 206 4 206 -5 0 -10 -7 -10 -16 0 -14 -2 -14 -22 0 -23 16 -41 19 -68
9z m72 -30 c36 -32 12 -103 -35 -103 -30 0 -57 29 -57 61 0 52 53 77 92 42z"/>
<path d="M3840 875 c0 -8 7 -15 15 -15 8 0 15 7 15 15 0 8 -7 15 -15 15 -8 0
-15 -7 -15 -15z"/>
<path d="M5500 875 c0 -8 5 -15 10 -15 7 0 7 -7 -1 -21 -9 -17 -8 -20 3 -17
20 7 23 68 4 68 -9 0 -16 -7 -16 -15z"/>
<path d="M1270 540 c0 -73 4 -120 10 -120 6 0 10 23 10 50 l0 50 34 0 c31 0
38 -5 63 -50 15 -27 34 -50 41 -50 17 0 16 4 -18 58 -28 46 -29 47 -9 56 22
11 34 46 25 79 -7 31 -45 47 -106 47 l-50 0 0 -120z m122 83 c40 -36 8 -83
-59 -83 l-43 0 0 50 0 50 42 0 c24 0 49 -7 60 -17z"/>
<path d="M1950 645 c0 -8 7 -15 15 -15 8 0 15 7 15 15 0 8 -7 15 -15 15 -8 0
-15 -7 -15 -15z"/>
<path d="M2532 644 c-25 -17 -28 -50 -6 -79 13 -18 13 -21 -5 -35 -33 -26 -35
-57 -7 -85 28 -28 64 -32 105 -10 25 13 30 13 41 0 7 -8 17 -12 22 -9 5 3 2
14 -7 25 -14 15 -15 24 -7 49 8 21 8 30 1 30 -6 0 -13 -9 -16 -20 -7 -27 -25
-25 -52 4 l-22 24 25 25 c14 15 26 35 26 46 0 21 -35 51 -60 51 -9 0 -26 -7
-38 -16z m72 -26 c8 -13 6 -22 -8 -37 -25 -28 -44 -26 -58 4 -21 46 38 76 66
33z m6 -168 c-21 -13 -64 -12 -78 2 -18 18 -15 56 6 67 13 8 24 3 52 -25 29
-29 32 -36 20 -44z"/>
<path d="M2825 543 c46 -168 55 -166 107 30 6 26 15 47 18 47 3 0 17 -43 30
-96 21 -83 40 -118 55 -102 8 8 65 231 60 236 -10 10 -16 -5 -42 -102 -16 -59
-29 -92 -34 -84 -4 7 -18 52 -30 100 -29 119 -46 119 -78 1 -33 -120 -37 -126
-51 -73 -33 129 -44 160 -55 160 -8 0 -2 -36 20 -117z"/>
<path d="M3130 645 c0 -8 7 -15 15 -15 8 0 15 7 15 15 0 8 -7 15 -15 15 -8 0
-15 -7 -15 -15z"/>
<path d="M3500 540 c0 -100 3 -120 15 -120 13 0 15 20 15 120 0 100 -2 120
-15 120 -12 0 -15 -20 -15 -120z"/>
<path d="M4210 540 l0 -120 70 0 c40 0 70 4 70 10 0 6 -27 10 -60 10 l-60 0 0
45 0 45 55 0 c30 0 55 5 55 10 0 6 -25 10 -55 10 l-55 0 0 45 0 45 60 0 c33 0
60 4 60 10 0 6 -30 10 -70 10 l-70 0 0 -120z"/>
<path d="M5190 645 c0 -8 7 -15 15 -15 8 0 15 7 15 15 0 8 -7 15 -15 15 -8 0
-15 -7 -15 -15z"/>
<path d="M5440 540 c0 -100 3 -120 15 -120 13 0 15 20 15 120 0 100 -2 120
-15 120 -12 0 -15 -20 -15 -120z"/>
<path d="M1850 616 c0 -13 -6 -27 -12 -30 -10 -5 -10 -7 0 -12 7 -3 12 -26 12
-60 0 -31 5 -64 10 -75 11 -20 45 -26 55 -9 3 6 -3 10 -14 10 -19 0 -21 6 -21
65 0 51 3 65 15 65 8 0 15 5 15 10 0 6 -7 10 -15 10 -9 0 -15 9 -15 25 0 16
-6 25 -15 25 -9 0 -15 -9 -15 -24z"/>
<path d="M5100 616 c0 -13 -6 -27 -12 -30 -10 -5 -10 -7 0 -12 7 -3 12 -26 12
-60 0 -31 5 -64 10 -75 11 -20 45 -26 55 -9 3 6 -3 10 -14 10 -19 0 -21 6 -21
65 0 51 3 65 15 65 8 0 15 5 15 10 0 6 -7 10 -15 10 -9 0 -15 9 -15 25 0 16
-6 25 -15 25 -9 0 -15 -9 -15 -24z"/>
<path d="M1497 570 c-24 -19 -28 -28 -25 -68 4 -59 38 -88 93 -78 28 6 39 15
52 40 40 85 -48 162 -120 106z m87 -16 c9 -8 16 -31 16 -49 0 -18 -7 -41 -16
-49 -35 -36 -94 -6 -94 47 0 57 58 88 94 51z"/>
<path d="M1660 536 c0 -30 4 -66 10 -80 11 -30 49 -42 81 -25 17 9 24 9 27 0
2 -6 8 -11 13 -11 5 0 9 38 9 85 0 69 -3 85 -15 85 -12 0 -15 -14 -15 -64 0
-70 -12 -90 -52 -84 -21 3 -23 8 -26 76 -2 55 -6 72 -17 72 -11 0 -15 -13 -15
-54z"/>
<path d="M1950 505 c0 -69 3 -85 15 -85 12 0 15 16 15 85 0 69 -3 85 -15 85
-12 0 -15 -16 -15 -85z"/>
<path d="M2020 505 c0 -69 3 -85 15 -85 12 0 15 14 15 63 0 67 10 87 45 87 35
0 45 -20 45 -87 0 -35 4 -63 10 -63 6 0 10 29 10 68 0 54 -4 72 -18 85 -21 19
-45 21 -72 7 -13 -7 -21 -7 -25 0 -17 27 -25 2 -25 -75z"/>
<path d="M2240 583 c-37 -13 -53 -79 -30 -123 13 -23 59 -34 93 -21 23 9 27 8
27 -9 0 -44 -62 -66 -94 -34 -23 22 -40 13 -22 -11 20 -28 102 -28 122 -1 17
23 20 206 4 206 -5 0 -10 -7 -10 -16 0 -14 -2 -14 -22 0 -23 16 -41 19 -68 9z
m72 -30 c36 -32 12 -103 -35 -103 -30 0 -57 29 -57 61 0 52 53 77 92 42z"/>
<path d="M3130 505 c0 -69 3 -85 15 -85 12 0 15 16 15 85 0 69 -3 85 -15 85
-12 0 -15 -16 -15 -85z"/>
<path d="M3200 505 c0 -69 3 -85 15 -85 12 0 15 13 15 56 0 64 13 94 40 94 11
0 20 5 20 10 0 13 -33 13 -47 -1 -8 -8 -13 -8 -17 0 -18 28 -26 4 -26 -74z"/>
<path d="M3337 570 c-22 -18 -27 -29 -27 -65 0 -35 5 -48 26 -64 15 -12 37
-21 50 -21 27 0 89 49 63 50 -9 0 -22 -7 -29 -15 -18 -22 -57 -18 -74 7 -29
41 -21 48 49 48 56 0 65 2 65 18 0 53 -75 79 -123 42z m91 -12 c22 -22 13 -28
-43 -28 -56 0 -69 11 -37 29 23 14 65 14 80 -1z"/>
<path d="M3607 570 c-22 -18 -27 -29 -27 -65 0 -35 5 -48 26 -64 15 -12 37
-21 50 -21 27 0 89 49 63 50 -9 0 -22 -7 -29 -15 -18 -22 -57 -18 -74 7 -29
41 -21 48 49 48 56 0 65 2 65 18 0 53 -75 79 -123 42z m91 -12 c22 -22 13 -28
-43 -28 -56 0 -69 11 -37 29 23 14 65 14 80 -1z"/>
<path d="M3788 579 c-10 -5 -18 -19 -18 -29 0 -21 35 -50 60 -50 9 0 25 -6 35
-14 16 -12 17 -16 6 -30 -17 -20 -70 -21 -77 -1 -4 8 -13 15 -20 15 -30 0 6
-39 41 -46 41 -7 85 16 85 45 0 24 -15 35 -68 50 -32 9 -42 17 -40 29 4 20 55
29 71 13 6 -6 18 -11 27 -11 11 1 9 6 -9 20 -25 22 -66 25 -93 9z"/>
<path d="M3948 579 c-10 -5 -18 -19 -18 -29 0 -21 35 -50 60 -50 9 0 25 -6 35
-14 16 -12 17 -16 6 -30 -17 -20 -70 -21 -77 -1 -4 8 -13 15 -20 15 -30 0 6
-39 41 -46 41 -7 85 16 85 45 0 24 -15 35 -68 50 -32 9 -42 17 -40 29 4 20 55
29 71 13 6 -6 18 -11 27 -11 11 1 9 6 -9 20 -25 22 -66 25 -93 9z"/>
<path d="M4398 579 c-10 -5 -18 -19 -18 -29 0 -21 35 -50 60 -50 9 0 25 -6 35
-14 16 -12 17 -16 6 -30 -17 -20 -70 -21 -77 -1 -4 8 -13 15 -20 15 -30 0 6
-39 41 -46 41 -7 85 16 85 45 0 24 -15 35 -68 50 -32 9 -42 17 -40 29 4 20 55
29 71 13 6 -6 18 -11 27 -11 11 1 9 6 -9 20 -25 22 -66 25 -93 9z"/>
<path d="M4568 579 c-10 -5 -18 -19 -18 -29 0 -21 35 -50 60 -50 9 0 25 -6 35
-14 16 -12 17 -16 6 -30 -17 -20 -70 -21 -77 -1 -4 8 -13 15 -20 15 -30 0 6
-39 41 -46 41 -7 85 16 85 45 0 24 -15 35 -68 50 -32 9 -42 17 -40 29 4 20 55
29 71 13 6 -6 18 -11 27 -11 11 1 9 6 -9 20 -25 22 -66 25 -93 9z"/>
<path d="M4737 570 c-22 -18 -27 -29 -27 -65 0 -35 5 -48 26 -64 15 -12 37
-21 50 -21 27 0 89 49 63 50 -9 0 -22 -7 -29 -15 -18 -22 -57 -18 -74 7 -29
41 -21 48 49 48 56 0 65 2 65 18 0 53 -75 79 -123 42z m91 -12 c22 -22 13 -28
-43 -28 -56 0 -69 11 -37 29 23 14 65 14 80 -1z"/>
<path d="M4900 505 c0 -69 3 -85 15 -85 12 0 15 14 15 63 0 67 10 87 45 87 35
0 45 -20 45 -87 0 -35 4 -63 10 -63 6 0 10 29 10 68 0 54 -4 72 -18 85 -21 19
-45 21 -72 7 -13 -7 -21 -7 -25 0 -17 27 -25 2 -25 -75z"/>
<path d="M5190 505 c0 -69 3 -85 15 -85 12 0 15 16 15 85 0 69 -3 85 -15 85
-12 0 -15 -16 -15 -85z"/>
<path d="M5279 571 c-13 -11 -21 -23 -17 -27 5 -4 16 0 26 9 30 27 82 19 82
-13 0 -13 -11 -19 -42 -24 -51 -8 -68 -21 -68 -52 0 -33 41 -52 80 -37 20 8
31 8 39 0 8 -8 11 11 11 66 0 74 -1 78 -26 87 -37 15 -59 12 -85 -9z m91 -86
c0 -39 -73 -64 -86 -30 -8 21 12 43 44 48 15 2 30 5 35 6 4 0 7 -10 7 -24z"/>
<path d="M5528 579 c-10 -5 -18 -19 -18 -29 0 -21 35 -50 60 -50 9 0 25 -6 35
-14 16 -12 17 -16 6 -30 -17 -20 -70 -21 -77 -1 -4 8 -13 15 -20 15 -30 0 6
-39 41 -46 41 -7 85 16 85 45 0 24 -15 35 -68 50 -32 9 -42 17 -40 29 4 20 55
29 71 13 6 -6 18 -11 27 -11 11 1 9 6 -9 20 -25 22 -66 25 -93 9z"/>
</g>
</svg>
